<?xml version="1.0" encoding="utf-8"?>
<!-- Generator: Adobe Illustrator 22.0.1, SVG Export Plug-In . SVG Version: 6.00 Build 0)  -->
<svg version="1.1" id="Layer_1" xmlns="http://www.w3.org/2000/svg" xmlns:xlink="http://www.w3.org/1999/xlink" x="0px" y="0px"
	 viewBox="0 0 221.3 190.8" style="enable-background:new 0 0 221.3 190.8;" xml:space="preserve">
<style type="text/css">
	.st0{fill:#F48320;}
	.st1{fill:#F8FBFF;}
	.st2{fill:#606060;}
	.st3{fill:#414142;}
	.st4{fill:#FFFFFF;}
	.st5{fill:#333333;}
	.st6{fill:none;}
</style>
<path id="XMLID_344_" class="st0" d="M160.5,5.5L6.2,90.6c-0.3,0.1-0.3,0.5,0,0.7l56,31.8l154.2-85.5L160.5,5.5z"/>
<polygon id="XMLID_1248_" class="st0" points="62.3,185.5 6,153 6,91 62.3,123.5 62.3,185.5 "/>
<path class="st2" d="M217.1,37.2L62.2,123L6,90.6l-0.4,0.3v66.7l7.5,4.4l3.6-2.3l36.6,21.1l1.6,5.3l7.3,4.2l0.4-0.3v0l7-4l1.6-5.3
	l135.2-74.5l3.5,2.4l7.5-4.4V37.4L217.1,37.2L217.1,37.2z M12.9,160.9l-6.5-3.7v-3.5l7.8,4.5L12.9,160.9L12.9,160.9z M51,178.5v-2.1
	l-7.2-4.2v2.1l-19.1-11v-2.1l-7.2-4.2v2.1l-11-6.3V91.7l55.5,32.1v61.1L51,178.5L51,178.5z M55.6,185.6l-1.3-4.3l7.6,4.4l0,3.5
	L55.6,185.6L55.6,185.6z M207.2,105.7l1.1-0.6l0.9,1.9L207.2,105.7L207.2,105.7z"/>
<g id="XMLID_1166_">
	<path id="XMLID_1167_" class="st2" d="M58.6,178.9L9.7,150.7V97.2l48.9,28.3V178.9L58.6,178.9z M10.6,150.1l47.1,27.2v-51.4
		L10.6,98.8V150.1L10.6,150.1z"/>
</g>
<g id="XMLID_1164_">
	<polygon id="XMLID_1165_" class="st2" points="33.8,164.1 32.9,164.1 33,111.7 33.9,111.7 33.8,164.1 	"/>
</g>
<rect x="18.5" y="134.3" transform="matrix(0.866 0.5 -0.5 0.866 70.482 7.0861)" class="st2" width="6.9" height="1.5"/>
<rect x="41.3" y="145.1" transform="matrix(0.866 0.5 -0.5 0.866 78.9256 -2.8541)" class="st2" width="6.9" height="1.5"/>
<polygon class="st6" points="49.6,73.1 47.9,72.1 44.6,73.9 91.5,100.3 94.8,98.5 49.6,73.1 "/>
<polygon class="st6" points="42.2,77.5 87,102.8 90.8,100.7 44,74.4 "/>
<polygon class="st6" points="50.6,72.8 95.6,98.1 99.3,96.1 52.5,69.8 "/>
<polygon class="st6" points="53.1,69.3 100,95.7 103.3,93.9 56.4,67.5 "/>
<polygon class="st6" points="33.8,82.3 78.5,107.5 82.2,105.4 35.7,79.2 "/>
<polygon class="st6" points="36.3,78.8 82.9,105 86.3,103.2 39.6,76.9 "/>
<polygon class="st6" points="76.1,58.7 121.2,84.1 124.9,82 77.9,55.7 "/>
<polygon class="st6" points="75.1,58.9 73.7,58.2 70.4,60 117.1,86.3 120.4,84.5 75,59 "/>
<polygon class="st6" points="27.6,83.4 74.4,109.7 77.7,107.9 30.9,81.6 "/>
<polygon class="st6" points="61.7,64.6 108.6,91 111.9,89.2 65,62.8 "/>
<polygon class="st6" points="59.2,68.2 104.1,93.4 107.8,91.4 61.1,65.1 "/>
<polygon class="st6" points="67.9,63.5 112.7,88.7 116.4,86.7 69.8,60.5 "/>
<polygon class="st6" points="84.6,54 129.6,79.3 129.6,79.4 129.7,79.4 133.4,77.3 86.5,50.9 "/>
<polygon class="st6" points="25.3,86.8 70.1,112 73.6,110.1 27,83.9 "/>
<polygon class="st6" points="17.1,91.4 61.8,116.6 65.3,114.6 19.5,88.1 "/>
<polygon class="st6" points="22.8,86.2 20.1,87.7 66.1,114.2 69.2,112.5 24.5,87.2 "/>
<polygon class="st6" points="210.4,35.1 211.9,34.2 165.7,7.5 163.5,8.7 "/>
<polygon class="st6" points="78.7,55.2 125.6,81.6 128.9,79.8 82,53.4 "/>
<polygon class="st6" points="129.4,27.5 176.2,53.8 179.4,52 132.7,25.7 "/>
<polygon class="st6" points="151.4,17.2 149.7,16.2 146.4,18.1 193.3,44.4 196.5,42.6 151.4,17.2 "/>
<polygon class="st6" points="143.9,21.6 188.8,46.9 192.5,44.8 145.8,18.5 "/>
<polygon class="st6" points="138,22.9 184.7,49.1 188,47.3 141.3,21 "/>
<polygon class="st6" points="152.4,16.9 197.3,42.2 201,40.2 154.2,13.9 "/>
<polygon class="st6" points="161,12.3 205.9,37.5 209.6,35.5 162.9,9.2 "/>
<polygon class="st6" points="87.2,50.5 134.2,76.9 137.5,75.1 90.5,48.7 "/>
<polygon class="st6" points="154.9,13.4 201.8,39.8 205.1,38 158.2,11.6 "/>
<polygon class="st6" points="135.6,26.4 180.2,51.6 184,49.5 137.4,23.3 "/>
<polygon class="st6" points="101.9,44.7 146.8,70 150.6,68 103.8,41.6 "/>
<polygon class="st6" points="110.5,40.1 155.4,65.3 159.1,63.3 112.4,37 "/>
<polygon class="st6" points="104.4,41.2 151.3,67.6 154.6,65.8 107.7,39.3 "/>
<polygon class="st6" points="95.8,45.8 142.8,72.2 146.1,70.4 99.1,44 "/>
<polygon class="st6" points="93.2,49.3 138.2,74.7 138.2,74.7 138.2,74.7 142,72.6 95.1,46.3 "/>
<polygon class="st6" points="127.1,30.9 171.9,56.1 175.4,54.2 128.8,28 "/>
<polygon class="st6" points="124.6,30.3 121.9,31.8 167.8,58.3 170.9,56.6 126.3,31.3 "/>
<polygon class="st6" points="113,36.5 159.9,62.9 163,61.2 116.1,34.8 "/>
<polygon class="st6" points="119.1,35.3 163.6,60.7 167.1,58.7 121.2,32.2 "/>
<g>
	<polygon class="st4" points="61.5,64.4 108.2,90.9 111.4,89.1 64.8,62.6 	"/>
	<polygon class="st4" points="53,69.1 99.6,95.6 102.9,93.8 56.3,67.3 	"/>
	<polygon class="st4" points="78.4,55 125.1,81.5 128.4,79.7 81.7,53.1 	"/>
	<polygon class="st4" points="86.9,50.2 133.6,76.8 136.9,75 90.2,48.4 	"/>
	<polygon class="st4" points="74.8,58.7 73.4,57.9 70.1,59.7 116.7,86.2 119.9,84.4 74.8,58.7 	"/>
	<polygon class="st4" points="22.8,86.1 20.1,87.6 65.9,114.3 68.9,112.6 24.5,87.1 	"/>
	<polygon class="st4" points="27.6,83.3 74.1,109.7 77.4,107.9 30.9,81.4 	"/>
	<polygon class="st4" points="49.5,72.9 47.8,72 44.5,73.8 91.2,100.3 94.4,98.5 49.5,72.9 	"/>
	<polygon class="st4" points="36.2,78.6 82.6,105 86,103.1 39.5,76.8 	"/>
	<polygon class="st4" points="154.2,12.9 200.9,39.4 204.2,37.6 157.5,11.1 	"/>
	<polygon class="st4" points="137.5,22.4 183.9,48.8 187.2,47 140.8,20.6 	"/>
	<polygon class="st4" points="150.7,16.7 149.1,15.8 145.8,17.6 192.4,44.1 195.7,42.3 150.7,16.7 	"/>
	<polygon class="st4" points="128.9,27.1 175.4,53.5 178.7,51.7 132.2,25.3 	"/>
	<polygon class="st4" points="104,40.8 150.7,67.4 154,65.5 107.2,39 	"/>
	<polygon class="st4" points="95.4,45.5 142.2,72.1 145.5,70.2 98.7,43.7 	"/>
	<polygon class="st4" points="124.1,29.9 121.4,31.4 167.1,58.1 170.2,56.4 125.8,30.9 	"/>
	<polygon class="st4" points="112.6,36.2 159.2,62.6 162.3,60.9 115.6,34.5 	"/>
</g>
<path id="XMLID_1239_" class="st1" d="M160.8,5.4L6.4,90.9l55.6,32l154.4-85.4L160.7,5.4L160.8,5.4z M61.4,117.3L13.3,90L162,7.6
	l48,27.7L61.4,117.3L61.4,117.3z"/>
<path class="st0" d="M168.1,70.2L168.1,70.2L66.6,126.3l-0.2,0.1l-0.8,52.7l9.9-5.5l0,0l35.9-19.8l0,0l9.9-5.5l0,0l45.9-25.3l0,0
	l41.8-23.1l0,0l4-2.2l0.8-52.7L168.1,70.2z M70.8,175.2l-4.4,0l0.8-48.3l4.4-2.4L70.8,175.2z M74.8,173.2l-3.3,1.8l0.8-51l3.3-1.8
	L74.8,173.2z M126.6,94l-0.8,50.8l-4.3,0l0.8-48.4L126.6,94z M130.6,91.8l-0.8,50.9l-3.2,1.8l0.8-50.9L130.6,91.8z M130.6,139.8
	l0.8-48.4l0,0l4.4-2.4l-0.8,50.8L130.6,139.8z M139.8,86.7l-0.8,50.9l-3.2,1.8l0.8-50.9L139.8,86.7z M144.9,83.9l-0.8,50.9l-4.3,0
	l0.8-48.4L144.9,83.9z M148.9,81.7l-0.8,50.9l-3.2,1.8l0.8-50.9L148.9,81.7z M154.1,78.8l-0.8,50.9l-4.3,0l0.8-48.4L154.1,78.8z
	 M158.1,76.6l-0.8,50.9l-3.2,1.8l0.8-50.9L158.1,76.6z M163.3,73.7l-0.8,50.7l-4.3,0l0.8-48.2L163.3,73.7z M167.3,71.5l-0.8,50.9
	l-3.2,1.7l0.8-50.8L167.3,71.5z M117.4,149.6L117.4,149.6l0.8-50.9l3.2-1.8l-0.8,50.9L117.4,149.6z M112.3,149.8l0.8-48.3l0,0l0,0
	l4.4-2.4l-0.8,50.8L112.3,149.8z M80,170.2l-4.4,0l0.8-48.4l4.4-2.4L80,170.2z M84,168.1l-3.3,1.8l0.8-51l3.3-1.8L84,168.1z
	 M89.1,165.1l-4.4,0l0.8-48.4l0,0l4.4-2.5L89.1,165.1z M93.1,163l-3.3,1.8l0.8-51l3.3-1.8L93.1,163z M98.3,160.1l-4.4,0l0.8-48.4
	l-0.1,0l4.5-2.5L98.3,160.1z M102.3,158l-3.3,1.8l0.8-51l3.3-1.8L102.3,158z M107.5,155l-4.4,0l0.8-48.4l-0.1,0l4.5-2.5L107.5,155z
	 M108.2,154.7l0.8-51l3.2-1.8l-0.8,51L108.2,154.7z M171.6,119.5l-4.3,0l0.8-48.4l4.4-2.4L171.6,119.5z M175.7,117.4l-3.3,1.8
	l0.8-51l3.3-1.8L175.7,117.4z M180.8,114.5l-4.4,0l0.8-48.4l-0.1,0l4.5-2.5L180.8,114.5z M184.8,112.3l-3.3,1.8l0.8-51l3.3-1.8
	L184.8,112.3z M190,109.4l-4.4,0l0.8-48.5l4.4-2.4L190,109.4z M194,107.3l-3.3,1.8l0.8-51l3.3-1.8L194,107.3z M199.2,104.4l-4.4,0
	l0.8-48.5l4.4-2.4L199.2,104.4z M203.2,102.2l-3.3,1.8l0.8-51l3.3-1.8L203.2,102.2z M208.3,99.1l-4.4,0l0.8-48.3l4.4-2.4L208.3,99.1
	z M212.3,97l-3.3,1.8l0.8-50.9l3.3-1.8L212.3,97z"/>
<path id="XMLID_1196_" class="st2" d="M61.9,123.7L6,90.6L160.8,4.7l56.7,32.7l0,0.4L62.3,123.9L61.9,123.7z M6.8,90.9L62.3,123
	l154.1-85.4L160.8,5.5L6.8,90.9L6.8,90.9z"/>
<path class="st2" d="M210.3,35.2L161.9,7.7l-4.4,2.6l0,0l-4.8,2.6l0,0l-36.9,20.5l-0.1,0l-17.1,9.5l-0.1,0l-4.8,2.6l0.1,0l-3.7,2.1
	L90,47.5l-4.8,2.6l0.1,0.1l-3.7,2.1l-0.1-0.1l-4.8,2.6l0.1,0.1L56.2,66.4l0,0L51.4,69l0,0l-38,21.1l47.9,27.2l0,0l0.2,0.1
	l102.2-56.5l-0.2-0.1L210.3,35.2z M61.6,116.6L17.1,91.3l2.3-3.3l45.6,26.6L61.6,116.6z M65.8,114.2L20.1,87.5l2.7-1.5l1.7,1
	l44.4,25.5L65.8,114.2z M69.8,112L25.2,86.7l1.7-2.9l46.4,26.3L69.8,112z M74.1,109.6L27.6,83.2l3.3-1.8l46.5,26.4L74.1,109.6z
	 M78.1,107.4L33.7,82.1l1.9-3.1l46.3,26.3L78.1,107.4z M82.6,104.9L36.2,78.6l3.3-1.8l46.5,26.4L82.6,104.9z M86.7,102.7L42,77.3
	l1.9-3.1l46.5,26.4L86.7,102.7z M91.1,100.2L44.5,73.7l3.3-1.8l1.6,0.9l0,0l45,25.6L91.1,100.2z M95.1,98L50.4,72.6l1.8-3.1L98.8,96
	L95.1,98z M99.6,95.5L52.9,69.1l3.3-1.8l46.6,26.5L99.6,95.5z M103.7,93.3L59,67.9l1.9-3.1l46.5,26.4L103.7,93.3z M108.1,90.8
	L61.5,64.4l3.3-1.8L111.4,89L108.1,90.8z M112.2,88.6L67.6,63.3l1.9-3.1l46.4,26.3L112.2,88.6z M116.6,86.1L70.1,59.7l3.3-1.8
	l1.4,0.8l0,0l45.1,25.6L116.6,86.1z M120.6,83.9L75.8,58.4l1.8-3l46.7,26.5L120.6,83.9z M125.1,81.5L78.3,54.9l3.3-1.8l46.7,26.5
	L125.1,81.5z M129.1,79.2L129.1,79.2L129.1,79.2L84.2,53.7l1.9-3.1l46.7,26.5L129.1,79.2z M133.6,76.7L86.9,50.2l3.3-1.8l46.7,26.5
	L133.6,76.7z M137.6,74.5L137.6,74.5L137.6,74.5L92.8,49l1.9-3.1l46.7,26.5L137.6,74.5z M142.1,72L95.4,45.5l3.3-1.8l46.7,26.6
	L142.1,72z M146.2,69.8l-44.7-25.4l1.9-3.1l46.6,26.5L146.2,69.8z M150.6,67.3l-46.7-26.5l3.3-1.8l46.7,26.5L150.6,67.3z
	 M154.7,65.1L110,39.7l1.9-3.1L158.4,63L154.7,65.1z M159.1,62.6l-46.6-26.5l3.1-1.7l46.7,26.5L159.1,62.6z M162.9,60.4l-44.3-25.5
	l2.2-3.1l45.6,26.6L162.9,60.4z M167.1,58.1l-45.7-26.7l2.7-1.5l1.7,1l44.4,25.5L167.1,58.1z M171.1,55.8l-44.6-25.3l1.7-2.9
	l46.4,26.3L171.1,55.8z M175.4,53.5l-46.5-26.4l3.3-1.8l46.5,26.4L175.4,53.5z M179.4,51.2L134.9,26l1.9-3.1l46.3,26.3L179.4,51.2z
	 M183.9,48.8l-46.4-26.4l3.3-1.8l46.5,26.4L183.9,48.8z M187.9,46.5l-44.6-25.4l1.9-3.1l46.5,26.4L187.9,46.5z M192.4,44.1
	l-46.6-26.5l3.3-1.8l1.6,0.9l0,0l45,25.6L192.4,44.1z M196.4,41.8l-44.7-25.4l1.8-3.1l46.5,26.4L196.4,41.8z M200.8,39.4l-46.7-26.5
	l3.3-1.8l46.6,26.5L200.8,39.4z M204.9,37.1l-44.6-25.4l1.9-3.1l46.5,26.4L204.9,37.1z"/>
</svg>
