<?xml version="1.0" encoding="utf-8"?>
<!-- Generator: Adobe Illustrator 22.0.1, SVG Export Plug-In . SVG Version: 6.00 Build 0)  -->
<svg version="1.1" id="Layer_1" xmlns="http://www.w3.org/2000/svg" xmlns:xlink="http://www.w3.org/1999/xlink" x="0px" y="0px"
	 viewBox="0 0 221.3 190.8" style="enable-background:new 0 0 221.3 190.8;" xml:space="preserve">
<style type="text/css">
	.st0{fill:#F48320;}
	.st1{fill:#F8FBFF;}
	.st2{fill:#606060;}
	.st3{fill:#414142;}
	.st4{fill:#FFFFFF;}
	.st5{fill:#333333;}
</style>
<g>
	<polygon id="XMLID_214_" class="st0" points="80,184.5 14.2,146.7 14.2,74.5 80,112.3 	"/>
	<polygon id="XMLID_213_" class="st0" points="142.9,0.5 14.2,74.4 80,112.3 208.8,38.3 	"/>
	<path id="XMLID_212_" class="st1" d="M142.9,2.6L15.7,75.7l65,37.3l127.2-73L142.9,2.6L142.9,2.6z M80,106.4L23.6,74.7L142.9,6.1
		L199,38.4L80,106.4L80,106.4z"/>
	<path class="st2" d="M208.7,37.8l-128.8,74L14.2,74l-0.4,0.3V152l8.8,5.1l4.2-2.7L69.5,179l1.9,6.2l8.5,4.9l0.5-0.3l0,0l8.1-4.7
		l1.9-6.2l105.8-60.8l4.1,2.7l8.8-5.1V38.1L208.7,37.8L208.7,37.8z M22.2,155.9l-7.6-4.4v-4.1l9.1,5.2L22.2,155.9L22.2,155.9z
		 M66.7,176.4v-2.5l-8.5-4.9v2.5l-22.3-12.8v-2.5l-8.5-4.9v2.5l-12.8-7.4V75.3l65,37.3v71.1L66.7,176.4L66.7,176.4z M72.1,184.6
		l-1.5-5l8.9,5.1v4.1L72.1,184.6L72.1,184.6z M197.2,117.6l1.3-0.7l1.1,2.2L197.2,117.6L197.2,117.6z"/>
	<path id="XMLID_211_" class="st0" d="M86.5,113.9l-0.2,0.1v61l11.4-6.5l0,0l52.8-30.2l0,0l48.2-27.5l0,0l4.6-2.6v-61L86.5,113.9
		L86.5,113.9z M146,140L146,140V81l3.8-2.1v59L146,140L146,140z M93.1,111.2l3.8-2.1v59l-3.8,2.1V111.2L93.1,111.2z M97.8,108.5
		l5.1-2.9v58.9h-5.1L97.8,108.5L97.8,108.5z M103.7,164.2v-59l3.8-2.1v59L103.7,164.2L103.7,164.2z M108.3,102.5l5.1-2.9v58.9h-5.1
		V102.5L108.3,102.5L108.3,102.5z M114.3,158.1v-59l3.8-2.1v59L114.3,158.1L114.3,158.1z M118.8,96.5l5.1-2.9v58.9h-5.1V96.5
		L118.8,96.5L118.8,96.5z M124.8,152.1V93l3.8-2.1v59L124.8,152.1L124.8,152.1z M129.4,90.5l5.2-3v58.9h-5.1v-56h-0.1V90.5z
		 M135.4,146V87l3.8-2.1v59L135.4,146L135.4,146z M139.9,84.4l5.2-3v58.8H140L139.9,84.4L139.9,84.4L139.9,84.4z M150.6,78.3
		l5.1-2.9v58.9h-5.1V78.3L150.6,78.3z M156.5,133.9v-59l3.8-2.1v59L156.5,133.9L156.5,133.9z M161.1,72.3l5.2-3v58.9h-5.1
		L161.1,72.3L161.1,72.3L161.1,72.3z M167.1,127.9v-59l3.8-2.1v59L167.1,127.9L167.1,127.9z M171.7,66.2l5.1-2.9v59h-5.1V66.2
		L171.7,66.2z M177.7,121.9v-59l3.8-2.1v59L177.7,121.9L177.7,121.9z M182.3,60.2l5.1-2.9v59h-5.1V60.2L182.3,60.2z M188.2,115.8
		v-59l3.8-2.1v59L188.2,115.8L188.2,115.8z M192.9,54.1l5.1-2.9V110h-5.1V54.1L192.9,54.1z M198.8,109.6V50.7l3.8-2.1v59
		L198.8,109.6L198.8,109.6z M92.3,111.7v58.8h-5.1v-55.9L92.3,111.7L92.3,111.7z"/>
	<g id="XMLID_198_">
		<polygon id="XMLID_210_" class="st1" points="39.7,66.2 43.6,64 98.2,95 94.4,97.2 		"/>
		<polygon id="XMLID_209_" class="st1" points="30.2,71.8 34,69.6 88.7,100.6 84.9,102.8 		"/>
		<polygon id="XMLID_208_" class="st1" points="49.7,60.5 53.5,58.3 108.2,89.3 104.4,91.5 		"/>
		<polygon id="XMLID_207_" class="st1" points="59.5,54.7 63.3,52.5 117.9,83.5 114.1,85.7 		"/>
		<polygon id="XMLID_206_" class="st1" points="69.1,49 72.9,46.8 127.5,77.9 123.7,80 		"/>
		<polygon id="XMLID_205_" class="st1" points="79,43.4 82.9,41.2 137.5,72.2 133.7,74.4 		"/>
		<polygon id="XMLID_204_" class="st1" points="88.8,37.6 92.6,35.4 147.3,66.4 143.5,68.6 		"/>
		<polygon id="XMLID_203_" class="st1" points="98.9,32.1 102.7,29.9 157.3,60.9 153.5,63.1 		"/>
		<polygon id="XMLID_202_" class="st1" points="108.6,26.3 112.4,24.1 167.1,55.1 163.3,57.3 		"/>
		<polygon id="XMLID_201_" class="st1" points="118.8,20.6 122.6,18.4 177.3,49.4 173.5,51.6 		"/>
		<polygon id="XMLID_200_" class="st1" points="128.8,15 132.6,12.8 187.2,43.8 183.4,46 		"/>
		<polygon id="XMLID_199_" class="st1" points="138.6,9.2 142.4,7 197,38 193.2,40.2 		"/>
	</g>
	<path id="XMLID_197_" class="st2" d="M80,112.8l-66.2-38L142.9,0l66.3,38.1v0.5L80,112.8L80,112.8z M15,74.4l65,37.3l127.9-73.5
		L142.9,1L15,74.4L15,74.4z"/>
	<path id="XMLID_196_" class="st2" d="M199,38.4L142.6,6l-19.9,11.5h-0.1l-5.6,3.2h0.1l-4.4,2.5l-0.2-0.1l-5.6,3.2l0.2,0.1l-4.4,2.5
		l-0.1-0.1L97,32l0.1,0.1L73.4,46l0,0l-5.6,3.2l0,0L23.6,74.7l56.3,31.9l0,0l0.2,0.1L199,38.4L199,38.4z M27.9,76.1l2.7-4l53.6,31.3
		l-4.1,2.3L27.9,76.1L27.9,76.1z M73.4,47l54.8,31.1l-3.8,2.2L69.5,49.2L73.4,47L73.4,47z M102.9,29.9L157.7,61l-3.8,2.2L99.1,32.1
		L102.9,29.9L102.9,29.9z M106,30.6l2.2-3.7L163,58l-4.4,2.5h-0.1v-0.1L106,30.6L106,30.6z M112.8,24.2l54.9,31.2l-3.8,2.2L109,26.4
		L112.8,24.2L112.8,24.2z M116,24.9l2.1-3.7L173,52.3l-4.4,2.5l0,0v-0.1L116,24.9L116,24.9z M122.8,18.5l54.9,31.2l-3.8,2.2
		L119,20.8L122.8,18.5L122.8,18.5z M187.5,44l-3.8,2.2L128.9,15l3.8-2.2L187.5,44L187.5,44z M136,13.7l2.1-3.7l54.6,31l-4.3,2.5
		L136,13.7L136,13.7z M138.9,9.4l3.8-2.2l54.6,31.2l-3.6,2.1L138.9,9.4L138.9,9.4z M182.9,46.7l-4.3,2.5L126,19.3l2.1-3.7
		L182.9,46.7L182.9,46.7z M138.1,72.4l-3.8,2.2L79.6,43.5l3.8-2.2L138.1,72.4L138.1,72.4z M86.7,42.2l2.1-3.7l54.5,30.9l-4.3,2.5
		L86.7,42.2L86.7,42.2z M89.5,37.9l3.8-2.2l1.6,0.9l0,0l53,30.1l-3.8,2.2L89.5,37.9L89.5,37.9z M96.2,36.3l2.1-3.6l54.8,31.1
		l-4.3,2.5L96.2,36.3L96.2,36.3z M133.4,75.1l-4.3,2.5L76.7,47.8l2.1-3.7L133.4,75.1L133.4,75.1z M36.5,70.9l52.1,29.9l-3.6,2.1
		L31.3,71.5l3.1-1.8L36.5,70.9L36.5,70.9z M37.3,70.4l2-3.5l54.5,30.9l-4.1,2.3L37.3,70.4L37.3,70.4z M40,66.3l3.8-2.2l54.6,31
		l-3.8,2.2L40,66.3L40,66.3z M47.2,65l2.1-3.7l54.4,30.9l-4.3,2.5L47.2,65L47.2,65z M50,60.7l3.8-2.2l54.6,30.9l-3.9,2.2L50,60.7
		L50,60.7z M56.9,59.1l2.1-3.7l54.6,31l-4.3,2.5L56.9,59.1L56.9,59.1z M59.7,54.8l3.8-2.2l1.9,1.1l0,0l52.8,30l-3.8,2.2L59.7,54.8
		L59.7,54.8z M66.7,53.4l2.1-3.7l54.7,31l-4.3,2.5L66.7,53.4L66.7,53.4z"/>
	<g id="XMLID_194_">
		<path id="XMLID_195_" class="st2" d="M75.7,176.8l-57.2-32.9V81.7l57.2,32.9V176.8L75.7,176.8z M19.5,143.3l55.1,31.6v-59.8
			L19.5,83.5V143.3L19.5,143.3z"/>
	</g>
	<g id="XMLID_192_">
		<polygon id="XMLID_193_" class="st2" points="46.7,159.5 45.6,159.5 45.7,98.6 46.8,98.6 		"/>
	</g>
	<g id="XMLID_190_">
		<polygon id="XMLID_191_" class="st2" points="37.2,153.5 36.1,153.5 36.2,92.6 37.3,92.6 		"/>
	</g>
	<g id="XMLID_188_">
		<polygon id="XMLID_189_" class="st2" points="27.7,148.5 26.6,148.5 26.7,87.6 27.8,87.6 		"/>
	</g>
	<g id="XMLID_186_">
		<polygon id="XMLID_187_" class="st2" points="56.2,164.5 55.1,164.5 55.2,103.6 56.3,103.6 		"/>
	</g>
	<g id="XMLID_184_">
		<polygon id="XMLID_185_" class="st2" points="65.7,170.5 64.6,170.5 64.7,109.6 65.8,109.6 		"/>
	</g>
</g>
<path class="st3" d="M140,144.9c0-1.4,0-56.9,0-59.4c-5.3,3-20.7,11.8-20.7,11.8s0.2,58.4,0,59.7"/>
<path class="st5" d="M119.2,129.6c0-1.2,0-32.8,0-32.8l21-12.3c0,0-0.1,59.4,0,60.5"/>
<polygon class="st3" points="181.7,120 202.8,107.7 202.8,48 181.7,60.2 "/>
<polygon class="st3" points="149.7,139 170.8,126.7 170.8,67 149.7,79.2 "/>
<polygon class="st3" points="87.2,174.5 108.3,162.2 108.3,102.5 87.2,114.7 "/>
<g>
	<polygon class="st4" points="87.2,119.2 108.3,106.9 108.3,102.5 87.2,114.7 	"/>
	<polygon class="st4" points="87.2,124.7 108.3,112.4 108.3,108 87.2,120.3 	"/>
	<polygon class="st4" points="87.2,130.2 108.3,118 108.3,113.5 87.2,125.8 	"/>
	<polygon class="st4" points="87.2,135.8 108.3,123.5 108.3,119.1 87.2,131.3 	"/>
	<polygon class="st4" points="87.2,141.3 108.3,129 108.3,124.6 87.2,136.8 	"/>
	<polygon class="st4" points="87.2,146.8 108.3,134.5 108.3,130.1 87.2,142.4 	"/>
	<polygon class="st4" points="87.2,152.3 108.3,140.1 108.3,135.6 87.2,147.9 	"/>
	<polygon class="st4" points="87.2,157.9 108.3,145.6 108.3,141.2 87.2,153.4 	"/>
	<polygon class="st4" points="87.2,163.4 108.3,151.1 108.3,146.7 87.2,158.9 	"/>
	<polygon class="st4" points="87.2,168.9 108.3,156.6 108.3,152.2 87.2,164.5 	"/>
	<polygon class="st4" points="87.2,174.4 108.3,162.2 108.3,157.7 87.2,170 	"/>
</g>
<g>
	<polygon class="st4" points="119.2,101.2 140.3,88.9 140.3,84.5 119.2,96.7 	"/>
	<polygon class="st4" points="119.2,106.7 140.3,94.4 140.3,90 119.2,102.3 	"/>
	<polygon class="st4" points="119.2,112.2 140.3,100 140.3,95.5 119.2,107.8 	"/>
</g>
<g>
	<polygon class="st4" points="181.7,64.7 202.8,52.4 202.8,48 181.7,60.3 	"/>
	<polygon class="st4" points="181.7,70.2 202.8,58 202.8,53.5 181.7,65.8 	"/>
	<polygon class="st4" points="181.7,75.8 202.8,63.5 202.8,59.1 181.7,71.3 	"/>
	<polygon class="st4" points="181.7,81.3 202.8,69 202.8,64.6 181.7,76.8 	"/>
	<polygon class="st4" points="181.7,86.8 202.8,74.5 202.8,70.1 181.7,82.4 	"/>
	<polygon class="st4" points="181.7,92.3 202.8,80.1 202.8,75.6 181.7,87.9 	"/>
	<polygon class="st4" points="181.7,97.9 202.8,85.6 202.8,81.2 181.7,93.4 	"/>
	<polygon class="st4" points="181.7,103.4 202.8,91.1 202.8,86.7 181.7,98.9 	"/>
	<polygon class="st4" points="181.7,108.9 202.8,96.6 202.8,92.2 181.7,104.5 	"/>
	<polygon class="st4" points="181.7,114.4 202.8,102.2 202.8,97.7 181.7,110 	"/>
	<polygon class="st4" points="181.7,120 202.8,107.7 202.8,103.3 181.7,115.5 	"/>
</g>
<path class="st5" d="M150,111c0-1.2,0-32.8,0-32.8l21-12.3c0,0-0.1,59.4,0,60.5"/>
<g>
	<polygon class="st4" points="149.7,83.2 170.8,70.9 170.8,66.5 149.7,78.7 	"/>
	<polygon class="st4" points="149.7,88.7 170.8,76.4 170.8,72 149.7,84.3 	"/>
	<polygon class="st4" points="149.7,94.2 170.8,82 170.8,77.5 149.7,89.8 	"/>
	<polygon class="st4" points="149.7,99.8 170.8,87.5 170.8,83.1 149.7,95.3 	"/>
	<polygon class="st4" points="149.7,105.3 170.8,93 170.8,88.6 149.7,100.8 	"/>
	<polygon class="st4" points="149.7,110.8 170.8,98.5 170.8,94.1 149.7,106.4 	"/>
	<polygon class="st4" points="149.7,116.3 170.8,104.1 170.8,99.6 149.7,111.9 	"/>
</g>
<g>
	<g id="XMLID_324_">
		<polygon id="XMLID_328_" class="st1" points="187.8,162.8 172.8,154.1 157.9,162.8 157.9,162.8 157.9,180.2 172.8,189 
			172.8,171.6 		"/>
		<polygon id="XMLID_327_" class="st0" points="157.9,180.3 172.8,189 172.8,171.6 157.9,162.9 157.9,162.9 		"/>
		<path id="XMLID_326_" class="st2" d="M188.1,162.6l-15.2-8.9l-15.2,8.9l0,0l0,0v0.3l0,0v17.4l14.9,8.7l0,0l0.3,0.2l0.3-0.2l0,0
			l14.8-8.6l0.1-0.1V163l0,0V162.6z M172.8,154.4l7,4.1l-14.3,8.4l-7-4.1L172.8,154.4z M172.5,188.4l-14.3-8.4v-16.7l14.3,8.4V188.4
			z M178.9,167.6l-6.1,3.6l-7-4.1l14.3-8.4l7,4.1L178.9,167.6z"/>
		<path id="XMLID_325_" class="st2" d="M166.9,171.5l-2.8-1.6c-0.3-0.2-0.6-0.2-0.9,0c-1,0.6-0.2,2.5,0.6,2.9l2.8,1.6
			c0.3,0.2,0.6,0.2,0.9,0C168.5,173.9,167.6,172,166.9,171.5z M167.2,174c-0.1,0-0.2,0-0.3,0l-2.8-1.6c-0.4-0.2-1.2-1.5-0.6-1.9
			c0.1-0.1,0.2,0,0.3,0l0.2,0.1c0.1,0.7,0.5,1.3,0.9,1.6l2.4,1.4C167.3,173.8,167.2,173.9,167.2,174z"/>
	</g>
	<g id="XMLID_319_">
		<polygon id="XMLID_323_" class="st1" points="217.8,162.8 202.9,154.1 187.9,162.8 187.9,162.8 187.9,180.2 202.9,189 
			202.9,171.6 		"/>
		<polygon id="XMLID_322_" class="st0" points="187.9,180.3 202.9,189 202.9,171.6 187.9,162.9 187.9,162.9 		"/>
		<path id="XMLID_321_" class="st2" d="M218.1,162.6l-15.2-8.9l-15.2,8.9l0,0l0,0v0.3l0,0v17.4l14.9,8.7l0,0l0.3,0.2l0.3-0.2l0,0
			l14.8-8.6l0.1-0.1V163l0,0L218.1,162.6z M202.9,154.4l7,4.1l-14.3,8.4l-7-4.1L202.9,154.4z M202.6,188.4l-14.3-8.4v-16.7l14.3,8.4
			V188.4z M209,167.6l-6.1,3.6l-7-4.1l14.3-8.4l7,4.1L209,167.6z"/>
		<path id="XMLID_320_" class="st2" d="M196.9,171.5l-2.8-1.6c-0.3-0.2-0.6-0.2-0.9,0c-1,0.6-0.2,2.5,0.6,2.9l2.8,1.6
			c0.3,0.2,0.6,0.2,0.9,0C198.6,173.9,197.7,172,196.9,171.5z M197.2,174c-0.1,0-0.2,0-0.3,0l-2.8-1.6c-0.4-0.2-1.2-1.5-0.6-1.9
			c0.1-0.1,0.2,0,0.3,0l0.2,0.1c0.1,0.7,0.5,1.3,0.9,1.6l2.4,1.4C197.4,173.8,197.3,173.9,197.2,174z"/>
	</g>
	<g id="XMLID_313_">
		<polygon id="XMLID_318_" class="st1" points="202.7,136.4 187.8,127.6 172.8,136.4 172.8,136.4 172.8,153.8 187.8,162.6 
			187.8,145.1 		"/>
		<polygon id="XMLID_317_" class="st0" points="172.8,153.8 187.8,162.6 187.8,145.1 172.8,136.4 172.8,136.4 		"/>
		<path id="XMLID_316_" class="st2" d="M203,136.2l-15.2-8.9l-15.2,8.9l0,0l0,0v0.3l0,0v17.4l14.9,8.7l0,0l0.3,0.2l0.3-0.2l0,0
			l14.8-8.6l0.1-0.1v-17.4l0,0L203,136.2z M187.8,128l7,4.1l-14.3,8.4l-7-4.1L187.8,128z M187.5,162l-14.3-8.4v-16.7l14.3,8.4V162z
			 M193.8,141.2l-6.1,3.6l-7-4.1l14.3-8.4l7,4.1L193.8,141.2z"/>
		<path id="XMLID_315_" class="st2" d="M181.8,145.1l-2.8-1.6c-0.3-0.2-0.6-0.2-0.9,0c-1,0.6-0.2,2.5,0.6,2.9l2.8,1.6
			c0.3,0.2,0.6,0.2,0.9,0C183.4,147.4,182.6,145.6,181.8,145.1z M182.1,147.5c-0.1,0-0.2,0-0.3,0l-2.8-1.6c-0.4-0.2-1.2-1.5-0.6-1.9
			c0.1-0.1,0.2,0,0.3,0l0.2,0.1c0.1,0.7,0.5,1.3,0.9,1.6l2.4,1.4C182.2,147.4,182.2,147.5,182.1,147.5z"/>
		<path id="XMLID_314_" class="st0" d="M200.5,148.7c-0.1-0.1-0.3-0.1-0.5,0l-2.2,1.3c-0.3,0.2-0.6,0.7-0.6,1.1v2.4
			c0,0.3,0.1,0.5,0.3,0.5c0.2,0.1,0.3,0.1,0.5,0l2.2-1.3l0,0c0.3-0.2,0.6-0.7,0.6-1.1v-2.3C200.8,149,200.7,148.8,200.5,148.7z"/>
	</g>
</g>
</svg>
