<?xml version="1.0" encoding="utf-8"?>
<!-- Generator: Adobe Illustrator 22.0.1, SVG Export Plug-In . SVG Version: 6.00 Build 0)  -->
<svg version="1.1" id="Layer_1" xmlns="http://www.w3.org/2000/svg" xmlns:xlink="http://www.w3.org/1999/xlink" x="0px" y="0px"
	 viewBox="0 0 221.3 190.8" style="enable-background:new 0 0 221.3 190.8;" xml:space="preserve">
<style type="text/css">
	.st0{fill:#F48320;}
	.st1{fill:#F8FBFF;}
	.st2{fill:#606060;}
	.st3{fill:#414142;}
	.st4{fill:#FFFFFF;}
	.st5{fill:#333333;}
</style>
<g>
	<g id="XMLID_255_">
		<g id="XMLID_288_">
			<g id="XMLID_307_">
				<polygon id="XMLID_312_" class="st0" points="200.1,154.4 200.1,156.6 161.8,178.9 161.8,176.8 				"/>
				<g id="XMLID_308_">
					<polygon id="XMLID_311_" class="st0" points="161.8,176.8 200.1,154.4 195.5,151.8 157.2,174.2 					"/>
					<polygon id="XMLID_310_" class="st1" points="161.8,176.8 199.4,154.9 195.5,152.6 157.8,174.7 					"/>
					<path id="XMLID_309_" class="st2" d="M156.9,176.4l4.6,2.7l0.3,0.2l0,0l0,0l0.3-0.2l38.4-22.3v-2.2v-0.3l0,0l-0.3-0.2l0,0
						l-4.6-2.7l-0.1,0.1l-38.3,22.3l-0.3,0.2l0,0l0,0v0.3V176.4z M195.5,152.1l4,2.4l-24.2,14.1l-13.6,8l-2.9-1.7l-1.1-0.6
						L195.5,152.1z M162,178.4V177l37.8-22.1v1.5L162,178.4z"/>
				</g>
			</g>
			<g id="XMLID_301_">
				<polygon id="XMLID_306_" class="st0" points="206.4,157.8 206.4,160 168,182.3 168,180.2 				"/>
				<g id="XMLID_302_">
					<polygon id="XMLID_305_" class="st0" points="168,180.2 206.4,157.8 201.8,155.2 163.4,177.6 					"/>
					<polygon id="XMLID_304_" class="st1" points="168,180.2 205.6,158.3 201.8,156 164.1,178.1 					"/>
					<path id="XMLID_303_" class="st2" d="M163.1,179.8l4.6,2.7l0.3,0.2l0,0l0,0l0.3-0.2l38.4-22.3V158v-0.3l0,0l-0.3-0.2l0,0
						l-4.6-2.7l-0.1,0.1l-38.2,22.3l-0.3,0.2l0,0l0,0v0.3v2.1H163.1z M201.8,155.5l4,2.4L181.6,172l-13.6,8l-2.9-1.7l-1.1-0.6
						L201.8,155.5z M168.3,181.8v-1.4l37.8-22.1v1.5L168.3,181.8z"/>
				</g>
			</g>
			<g id="XMLID_295_">
				<polygon id="XMLID_300_" class="st0" points="212.7,161.5 212.7,163.7 174.3,186 174.3,183.9 				"/>
				<g id="XMLID_296_">
					<polygon id="XMLID_299_" class="st0" points="174.3,183.9 212.7,161.5 208.1,158.8 169.7,181.2 					"/>
					<polygon id="XMLID_298_" class="st1" points="174.3,183.9 211.9,161.9 208.1,159.7 170.4,181.7 					"/>
					<path id="XMLID_297_" class="st2" d="M169.4,183.5l4.6,2.7l0.3,0.2l0,0l0,0l0.3-0.2l38.4-22.3v-2.2v-0.3l0,0l-0.3-0.2l0,0
						l-4.6-2.7l-0.1,0.1l-38.2,22.3l-0.3,0.2l0,0l0,0v0.3L169.4,183.5L169.4,183.5z M208.1,159.1l4,2.4l-24.2,14.1l-13.6,8l-2.9-1.7
						l-1.1-0.6L208.1,159.1z M174.6,185.5v-1.4l37.8-22.1v1.5L174.6,185.5z"/>
				</g>
			</g>
			<g id="XMLID_289_">
				<polygon id="XMLID_294_" class="st0" points="218.9,165.2 218.9,167.3 180.5,189.7 180.5,187.6 				"/>
				<g id="XMLID_290_">
					<polygon id="XMLID_293_" class="st0" points="180.5,187.6 218.9,165.2 214.3,162.5 176,184.9 					"/>
					<polygon id="XMLID_292_" class="st1" points="180.5,187.6 218.2,165.6 214.3,163.4 176.6,185.4 					"/>
					<path id="XMLID_291_" class="st2" d="M175.7,187.2l4.6,2.7l0.3,0.2l0,0l0,0l0.3-0.2l38.4-22.3v-2.2V165l0,0l-0.3-0.2l0,0
						l-4.6-2.7l-0.1,0.1l-38.2,22.3l-0.3,0.2l0,0l0,0v0.3L175.7,187.2L175.7,187.2z M214.3,162.8l4,2.4l-24.1,14.1l-13.6,8l-2.9-1.7
						l-1.1-0.6L214.3,162.8z M180.8,189.2v-1.4l37.8-22.1v1.5L180.8,189.2z"/>
				</g>
			</g>
		</g>
		<g id="XMLID_263_">
			<g id="XMLID_282_">
				<polygon id="XMLID_287_" class="st0" points="200.1,147.7 200.1,149.8 161.8,172.2 161.8,170.1 				"/>
				<g id="XMLID_283_">
					<polygon id="XMLID_286_" class="st0" points="161.8,170.1 200.1,147.7 195.5,145 157.2,167.4 					"/>
					<polygon id="XMLID_285_" class="st1" points="161.8,170.1 199.4,148.1 195.5,145.9 157.8,167.9 					"/>
					<path id="XMLID_284_" class="st2" d="M156.9,169.7l4.6,2.7l0.3,0.2l0,0l0,0l0.3-0.2l38.4-22.3v-2.2v-0.3l0,0l-0.3-0.2l0,0
						l-4.6-2.7l-0.1,0.1l-38.3,22.3l-0.3,0.2l0,0l0,0v0.3V169.7z M195.5,145.3l4,2.4l-24.2,14.1l-13.6,8l-2.9-1.7l-1.1-0.6
						L195.5,145.3z M162,171.7v-1.4l37.8-22.1v1.5L162,171.7z"/>
				</g>
			</g>
			<g id="XMLID_276_">
				<polygon id="XMLID_281_" class="st0" points="206.4,151.1 206.4,153.2 168,175.6 168,173.5 				"/>
				<g id="XMLID_277_">
					<polygon id="XMLID_280_" class="st0" points="168,173.5 206.4,151.1 201.8,148.4 163.4,170.8 					"/>
					<polygon id="XMLID_279_" class="st1" points="168,173.5 205.6,151.5 201.8,149.3 164.1,171.3 					"/>
					<path id="XMLID_278_" class="st2" d="M163.1,173.1l4.6,2.7l0.3,0.2l0,0l0,0l0.3-0.2l38.4-22.3v-2.2V151l0,0l-0.3-0.2l0,0
						l-4.6-2.7l-0.1,0.1l-38.2,22.3l-0.3,0.2l0,0l0,0v0.3v2.1H163.1z M201.8,148.7l4,2.4l-24.2,14.1l-13.6,8l-2.9-1.7l-1.1-0.6
						L201.8,148.7z M168.3,175.1v-1.4l37.8-22.1v1.5L168.3,175.1z"/>
				</g>
			</g>
			<g id="XMLID_270_">
				<polygon id="XMLID_275_" class="st0" points="212.7,154.7 212.7,156.9 174.3,179.2 174.3,177.1 				"/>
				<g id="XMLID_271_">
					<polygon id="XMLID_274_" class="st0" points="174.3,177.1 212.7,154.7 208.1,152.1 169.7,174.5 					"/>
					<polygon id="XMLID_273_" class="st1" points="174.3,177.1 211.9,155.2 208.1,152.9 170.4,175 					"/>
					<path id="XMLID_272_" class="st2" d="M169.4,176.7l4.6,2.7l0.3,0.2l0,0l0,0l0.3-0.2l38.4-22.3v-2.2v-0.3l0,0l-0.3-0.2l0,0
						l-4.6-2.7l-0.1,0.1l-38.2,22.3l-0.3,0.2l0,0l0,0v0.3L169.4,176.7L169.4,176.7z M208.1,152.4l4,2.4l-24.2,14.1l-13.6,8l-2.9-1.7
						l-1.1-0.6L208.1,152.4z M174.6,178.7v-1.4l37.8-22.1v1.5L174.6,178.7z"/>
				</g>
			</g>
			<g id="XMLID_264_">
				<polygon id="XMLID_269_" class="st0" points="218.9,158.4 218.9,160.6 180.5,182.9 180.5,180.8 				"/>
				<g id="XMLID_265_">
					<polygon id="XMLID_268_" class="st0" points="180.5,180.8 218.9,158.4 214.3,155.7 176,178.1 					"/>
					<polygon id="XMLID_267_" class="st1" points="180.5,180.8 218.2,158.9 214.3,156.6 176.6,178.6 					"/>
					<path id="XMLID_266_" class="st2" d="M175.7,180.4l4.6,2.7l0.3,0.2l0,0l0,0l0.3-0.2l38.4-22.3v-2.2v-0.3l0,0l-0.3-0.2l0,0
						l-4.6-2.7l-0.1,0.1l-38.2,22.3l-0.3,0.2l0,0l0,0v0.3L175.7,180.4L175.7,180.4z M214.3,156.1l4,2.4l-24.1,14l-13.6,8l-2.9-1.7
						l-1.1-0.6L214.3,156.1z M180.8,182.4V181l37.8-22.1v1.5L180.8,182.4z"/>
				</g>
			</g>
		</g>
		<g id="XMLID_256_">
			<polygon id="XMLID_262_" class="st0" points="190.9,181.6 190.9,176.8 185.1,180.2 185.1,184.9 			"/>
			<path id="XMLID_261_" class="st2" d="M184.8,184.8v0.7l6.4-3.7v-5.4l-6.4,3.7v0.3l-3.7,2.2L184.8,184.8z M185.4,180.4l5.2-3.1
				v4.1l-5.2,3V180.4z"/>
			<polygon id="XMLID_260_" class="st0" points="214.8,167.5 214.8,162.9 209,166.4 209,170.9 			"/>
			<path id="XMLID_259_" class="st2" d="M208.8,170.8v0.7l6.4-3.8v-5.2l-6.4,3.8v0.2l-3.7,2.2L208.8,170.8z M209.3,166.5l5.2-3.1
				v3.9l-5.2,3.1V166.5z"/>
			<polygon id="XMLID_258_" class="st0" points="203.2,174.3 203.2,169.7 197.4,173.2 197.4,177.8 			"/>
			<path id="XMLID_257_" class="st2" d="M197.1,177.6v0.7l6.4-3.8v-5.2l-6.4,3.8v0.2l-3.7,2.2L197.1,177.6z M197.6,173.3l5.2-3.1
				v3.9l-5.2,3.1V173.3z"/>
		</g>
	</g>
	<g id="XMLID_250_">
		<polygon id="XMLID_254_" class="st1" points="174.3,141.5 191.6,131.4 208.9,141.5 208.9,141.5 208.9,161.8 191.6,171.9 
			191.6,151.7 		"/>
		<polygon id="XMLID_253_" class="st0" points="208.9,161.7 191.6,171.8 191.6,151.6 208.9,141.5 208.9,141.5 		"/>
		<path id="XMLID_252_" class="st2" d="M173.9,141.7L173.9,141.7v20.2l0.2,0.1l17.1,10l0,0l0.3,0.2l0.3-0.2l0,0l17.4-10v-20.2l0,0
			v-0.4l0,0h-0.1L191.6,131L174,141.3L173.9,141.7z M208.2,141.5l-8.1,4.7l-16.6-9.7l8.1-4.7L208.2,141.5z M191.9,151.8l16.6-9.7
			v19.4l-16.6,9.7V151.8z M175,141.5l8.1-4.7l16.6,9.7l-8.1,4.7l-7-4.1L175,141.5z"/>
		<path id="XMLID_251_" class="st2" d="M197.8,155.1c0.3,0.2,0.7,0.1,1-0.1l3.2-1.9c0.9-0.5,1.9-2.7,0.7-3.4c-0.3-0.2-0.7-0.2-1,0.1
			l-3.2,1.9C197.6,152.2,196.6,154.4,197.8,155.1z M198,154l2.7-1.6c0.6-0.3,1-1.1,1.1-1.9l0.2-0.1c0.1,0,0.2-0.1,0.3-0.1
			c0.7,0.4-0.2,1.9-0.7,2.2l-3.2,1.9c-0.1,0-0.2,0.1-0.3,0.1C198.1,154.4,198,154.3,198,154z"/>
	</g>
	<g id="XMLID_246_">
		<polygon id="XMLID_249_" class="st1" points="172.2,160.6 181.2,155.3 190.2,160.6 190.2,160.6 190.2,171.1 181.2,176.4 
			181.2,165.9 		"/>
		<polygon id="XMLID_248_" class="st0" points="190.2,171.1 181.2,176.4 181.2,165.9 190.2,160.6 190.2,160.6 		"/>
		<path id="XMLID_247_" class="st2" d="M172,160.7L172,160.7v10.5l0.1,0.1l8.9,5.2l0,0l0.2,0.1l0.2-0.1l0,0l9-5.3v-10.5l0,0v-0.2
			l0,0l0,0l-9.2-5.4l-9.2,5.4V160.7z M189.8,160.6l-4.2,2.5l-8.7-5.1l4.2-2.5L189.8,160.6z M181.4,166l8.7-5.1V171l-8.7,5.1V166z
			 M172.5,160.6l4.2-2.5l8.7,5.1l-4.2,2.5l-3.7-2.1L172.5,160.6z"/>
	</g>
</g>
<g>
	<polygon id="XMLID_245_" class="st0" points="80,184.5 14.2,146.7 14.2,74.5 80,112.3 	"/>
	<polygon id="XMLID_244_" class="st0" points="142.9,0.5 14.2,74.4 80,112.3 208.8,38.3 	"/>
	<path id="XMLID_243_" class="st1" d="M142.9,2.6L15.7,75.7l65,37.3l127.2-73L142.9,2.6L142.9,2.6z M80,106.4L23.6,74.7L142.9,6.1
		L199,38.4L80,106.4L80,106.4z"/>
	<path class="st2" d="M208.7,37.8l-128.8,74L14.2,74l-0.4,0.3V152l8.8,5.1l4.2-2.7L69.5,179l1.9,6.2l8.5,4.9l0.5-0.3l0,0l8.1-4.7
		l1.9-6.2l105.8-60.8l4.1,2.7l8.8-5.1V38.1L208.7,37.8L208.7,37.8z M22.2,155.9l-7.6-4.4v-4.1l9.1,5.2L22.2,155.9L22.2,155.9z
		 M66.7,176.4v-2.5l-8.5-4.9v2.5l-22.3-12.8v-2.5l-8.5-4.9v2.5l-12.8-7.4V75.3l65,37.3v71.1L66.7,176.4L66.7,176.4z M72.1,184.6
		l-1.5-5l8.9,5.1v4.1L72.1,184.6L72.1,184.6z M197.2,117.6l1.3-0.7l1.1,2.2L197.2,117.6L197.2,117.6z"/>
	<path id="XMLID_242_" class="st0" d="M86.5,113.9l-0.2,0.1v61l11.4-6.5l0,0l52.8-30.2l0,0l48.2-27.5l0,0l4.6-2.6v-61L86.5,113.9
		L86.5,113.9z M146,140L146,140V81l3.8-2.1v59L146,140L146,140z M93.1,111.2l3.8-2.1v59l-3.8,2.1V111.2L93.1,111.2z M97.8,108.5
		l5.1-2.9v58.9h-5.1L97.8,108.5L97.8,108.5z M103.7,164.2v-59l3.8-2.1v59L103.7,164.2L103.7,164.2z M108.3,102.5l5.1-2.9v58.9h-5.1
		V102.5L108.3,102.5L108.3,102.5z M114.3,158.1v-59l3.8-2.1v59L114.3,158.1L114.3,158.1z M118.8,96.5l5.1-2.9v58.9h-5.1V96.5
		L118.8,96.5L118.8,96.5z M124.8,152.1V93l3.8-2.1v59L124.8,152.1L124.8,152.1z M129.4,90.5l5.2-3v58.9h-5.1v-56h-0.1V90.5z
		 M135.4,146V87l3.8-2.1v59L135.4,146L135.4,146z M139.9,84.4l5.2-3v58.8H140L139.9,84.4L139.9,84.4L139.9,84.4z M150.6,78.3
		l5.1-2.9v58.9h-5.1V78.3L150.6,78.3z M156.5,133.9v-59l3.8-2.1v59L156.5,133.9L156.5,133.9z M161.1,72.3l5.2-3v58.9h-5.1
		L161.1,72.3L161.1,72.3L161.1,72.3z M167.1,127.9v-59l3.8-2.1v59L167.1,127.9L167.1,127.9z M171.7,66.2l5.1-2.9v59h-5.1V66.2
		L171.7,66.2z M177.7,121.9v-59l3.8-2.1v59L177.7,121.9L177.7,121.9z M182.3,60.2l5.1-2.9v59h-5.1V60.2L182.3,60.2z M188.2,115.8
		v-59l3.8-2.1v59L188.2,115.8L188.2,115.8z M192.9,54.1l5.1-2.9V110h-5.1V54.1L192.9,54.1z M198.8,109.6V50.7l3.8-2.1v59
		L198.8,109.6L198.8,109.6z M92.3,111.7v58.8h-5.1v-55.9L92.3,111.7L92.3,111.7z"/>
	<g id="XMLID_229_">
		<polygon id="XMLID_241_" class="st1" points="39.7,66.2 43.6,64 98.2,95 94.4,97.2 		"/>
		<polygon id="XMLID_240_" class="st1" points="30.2,71.8 34,69.6 88.7,100.6 84.9,102.8 		"/>
		<polygon id="XMLID_239_" class="st1" points="49.7,60.5 53.5,58.3 108.2,89.3 104.4,91.5 		"/>
		<polygon id="XMLID_238_" class="st1" points="59.5,54.7 63.3,52.5 117.9,83.5 114.1,85.7 		"/>
		<polygon id="XMLID_237_" class="st1" points="69.1,49 72.9,46.8 127.5,77.9 123.7,80 		"/>
		<polygon id="XMLID_236_" class="st1" points="79,43.4 82.9,41.2 137.5,72.2 133.7,74.4 		"/>
		<polygon id="XMLID_235_" class="st1" points="88.8,37.6 92.6,35.4 147.3,66.4 143.5,68.6 		"/>
		<polygon id="XMLID_234_" class="st1" points="98.9,32.1 102.7,29.9 157.3,60.9 153.5,63.1 		"/>
		<polygon id="XMLID_233_" class="st1" points="108.6,26.3 112.4,24.1 167.1,55.1 163.3,57.3 		"/>
		<polygon id="XMLID_232_" class="st1" points="118.8,20.6 122.6,18.4 177.3,49.4 173.5,51.6 		"/>
		<polygon id="XMLID_231_" class="st1" points="128.8,15 132.6,12.8 187.2,43.8 183.4,46 		"/>
		<polygon id="XMLID_230_" class="st1" points="138.6,9.2 142.4,7 197,38 193.2,40.2 		"/>
	</g>
	<path id="XMLID_228_" class="st2" d="M80,112.8l-66.2-38L142.9,0l66.3,38.1v0.5L80,112.8L80,112.8z M15,74.4l65,37.3l127.9-73.5
		L142.9,1L15,74.4L15,74.4z"/>
	<path id="XMLID_227_" class="st2" d="M199,38.4L142.6,6l-19.9,11.5h-0.1l-5.6,3.2h0.1l-4.4,2.5l-0.2-0.1l-5.6,3.2l0.2,0.1l-4.4,2.5
		l-0.1-0.1L97,32l0.1,0.1L73.4,46l0,0l-5.6,3.2l0,0L23.6,74.7l56.3,31.9l0,0l0.2,0.1L199,38.4L199,38.4z M27.9,76.1l2.7-4l53.6,31.3
		l-4.1,2.3L27.9,76.1L27.9,76.1z M73.4,47l54.8,31.1l-3.8,2.2L69.5,49.2L73.4,47L73.4,47z M102.9,29.9L157.7,61l-3.8,2.2L99.1,32.1
		L102.9,29.9L102.9,29.9z M106,30.6l2.2-3.7L163,58l-4.4,2.5h-0.1v-0.1L106,30.6L106,30.6z M112.8,24.2l54.9,31.2l-3.8,2.2L109,26.4
		L112.8,24.2L112.8,24.2z M116,24.9l2.1-3.7L173,52.3l-4.4,2.5l0,0v-0.1L116,24.9L116,24.9z M122.8,18.5l54.9,31.2l-3.8,2.2
		L119,20.8L122.8,18.5L122.8,18.5z M187.5,44l-3.8,2.2L128.9,15l3.8-2.2L187.5,44L187.5,44z M136,13.7l2.1-3.7l54.6,31l-4.3,2.5
		L136,13.7L136,13.7z M138.9,9.4l3.8-2.2l54.6,31.2l-3.6,2.1L138.9,9.4L138.9,9.4z M182.9,46.7l-4.3,2.5L126,19.3l2.1-3.7
		L182.9,46.7L182.9,46.7z M138.1,72.4l-3.8,2.2L79.6,43.5l3.8-2.2L138.1,72.4L138.1,72.4z M86.7,42.2l2.1-3.7l54.5,30.9l-4.3,2.5
		L86.7,42.2L86.7,42.2z M89.5,37.9l3.8-2.2l1.6,0.9l0,0l53,30.1l-3.8,2.2L89.5,37.9L89.5,37.9z M96.2,36.3l2.1-3.6l54.8,31.1
		l-4.3,2.5L96.2,36.3L96.2,36.3z M133.4,75.1l-4.3,2.5L76.7,47.8l2.1-3.7L133.4,75.1L133.4,75.1z M36.5,70.9l52.1,29.9l-3.6,2.1
		L31.3,71.5l3.1-1.8L36.5,70.9L36.5,70.9z M37.3,70.4l2-3.5l54.5,30.9l-4.1,2.3L37.3,70.4L37.3,70.4z M40,66.3l3.8-2.2l54.6,31
		l-3.8,2.2L40,66.3L40,66.3z M47.2,65l2.1-3.7l54.4,30.9l-4.3,2.5L47.2,65L47.2,65z M50,60.7l3.8-2.2l54.6,30.9l-3.9,2.2L50,60.7
		L50,60.7z M56.9,59.1l2.1-3.7l54.6,31l-4.3,2.5L56.9,59.1L56.9,59.1z M59.7,54.8l3.8-2.2l1.9,1.1l0,0l52.8,30l-3.8,2.2L59.7,54.8
		L59.7,54.8z M66.7,53.4l2.1-3.7l54.7,31l-4.3,2.5L66.7,53.4L66.7,53.4z"/>
	<g id="XMLID_225_">
		<path id="XMLID_226_" class="st2" d="M75.7,176.8l-57.2-32.9V81.7l57.2,32.9V176.8L75.7,176.8z M19.5,143.3l55.1,31.6v-59.8
			L19.5,83.5V143.3L19.5,143.3z"/>
	</g>
	<g id="XMLID_223_">
		<polygon id="XMLID_224_" class="st2" points="46.7,159.5 45.6,159.5 45.7,98.6 46.8,98.6 		"/>
	</g>
	<g id="XMLID_221_">
		<polygon id="XMLID_222_" class="st2" points="37.2,153.5 36.1,153.5 36.2,92.6 37.3,92.6 		"/>
	</g>
	<g id="XMLID_219_">
		<polygon id="XMLID_220_" class="st2" points="27.7,148.5 26.6,148.5 26.7,87.6 27.8,87.6 		"/>
	</g>
	<g id="XMLID_217_">
		<polygon id="XMLID_218_" class="st2" points="56.2,164.5 55.1,164.5 55.2,103.6 56.3,103.6 		"/>
	</g>
	<g id="XMLID_215_">
		<polygon id="XMLID_216_" class="st2" points="65.7,170.5 64.6,170.5 64.7,109.6 65.8,109.6 		"/>
	</g>
</g>
<polygon class="st3" points="87.2,173.1 118.1,156.3 118.1,98 87.2,114.7 "/>
<polygon class="st3" points="129.2,147.9 161.5,131.4 161.5,73.6 129.2,90.1 "/>
<g>
	<polygon class="st4" points="129.1,94.7 161.6,75.9 161.6,71.5 129.1,90.2 	"/>
	<polygon class="st4" points="129.1,100.2 161.6,81.4 161.6,77 129.1,95.8 	"/>
	<polygon class="st4" points="129.1,105.7 161.6,87 161.6,82.5 129.1,101.3 	"/>
	<polygon class="st4" points="129.1,111.3 161.6,92.5 161.6,88.1 129.1,106.8 	"/>
	<polygon class="st4" points="129.1,116.8 161.6,98 161.6,93.6 129.1,112.3 	"/>
	<polygon class="st4" points="129.1,122.3 161.6,103.5 161.6,99.1 129.1,117.9 	"/>
	<polygon class="st4" points="129.1,127.8 161.6,109.1 161.6,104.6 129.1,123.4 	"/>
	<polygon class="st4" points="129.1,133.4 161.6,114.6 161.6,110.2 129.1,128.9 	"/>
	<polygon class="st4" points="129.1,138.9 161.6,120.1 161.6,115.7 129.1,134.4 	"/>
	<polygon class="st4" points="129.1,144.4 161.6,125.6 161.6,121.2 129.1,140 	"/>
	<polygon class="st4" points="129.1,149.9 161.6,131.2 161.6,126.7 129.1,145.5 	"/>
</g>
<polygon class="st3" points="171.1,124.8 203.7,108.4 203.7,51.1 171.1,67.4 "/>
<g>
	<polygon class="st4" points="171.1,72.2 203.6,53.4 203.6,49 171.1,67.7 	"/>
	<polygon class="st4" points="171.1,77.7 203.6,58.9 203.6,54.5 171.1,73.3 	"/>
	<polygon class="st4" points="171.1,83.2 203.6,64.5 203.6,60 171.1,78.8 	"/>
	<polygon class="st4" points="171.1,88.8 203.6,70 203.6,65.6 171.1,84.3 	"/>
	<polygon class="st4" points="171.1,94.3 203.6,75.5 203.6,71.1 171.1,89.8 	"/>
	<polygon class="st4" points="171.1,99.8 203.6,81 203.6,76.6 171.1,95.4 	"/>
	<polygon class="st4" points="171.1,105.3 203.6,86.6 203.6,82.1 171.1,100.9 	"/>
	<polygon class="st4" points="171.1,110.9 203.6,92.1 203.6,87.7 171.1,106.4 	"/>
	<polygon class="st4" points="171.1,116.4 203.6,97.6 203.6,93.2 171.1,111.9 	"/>
	<polygon class="st4" points="171.1,121.9 203.6,103.1 203.6,98.7 171.1,117.5 	"/>
	<polygon class="st4" points="171.1,127.4 203.6,108.7 203.6,104.2 171.1,123 	"/>
</g>
<path class="st5" d="M87.2,134.8c0-1.2,0-20.2,0-20.2l30.8-17.5c0,0-0.1,58.1,0,59.2"/>
<g>
	<polygon class="st4" points="86.5,118.9 119,100.2 119,95.8 86.5,114.4 	"/>
	<polygon class="st4" points="86.5,124.4 119,105.7 119,101.3 86.5,120 	"/>
	<polygon class="st4" points="86.5,129.9 119,111.3 119,106.8 86.5,125.5 	"/>
	<polygon class="st4" points="86.5,135.5 119,116.8 119,112.4 86.5,131 	"/>
</g>
</svg>
