<?xml version="1.0" encoding="utf-8"?>
<!-- Generator: Adobe Illustrator 22.0.1, SVG Export Plug-In . SVG Version: 6.00 Build 0)  -->
<svg version="1.1" id="Layer_1" xmlns="http://www.w3.org/2000/svg" xmlns:xlink="http://www.w3.org/1999/xlink" x="0px" y="0px"
	 viewBox="0 0 221.3 190.8" style="enable-background:new 0 0 221.3 190.8;" xml:space="preserve">
<style type="text/css">
	.st0{fill:#F48320;}
	.st1{fill:#F8FBFF;}
	.st2{fill:#606060;}
	.st3{fill:#414142;}
	.st4{fill:#FFFFFF;}
	.st5{fill:#333333;}
</style>
<g>
	<polygon id="XMLID_183_" class="st0" points="80,184.5 14.2,146.7 14.2,74.5 80,112.3 	"/>
	<polygon id="XMLID_182_" class="st0" points="142.9,0.5 14.2,74.4 80,112.3 208.8,38.3 	"/>
	<path id="XMLID_181_" class="st1" d="M142.9,2.6L15.7,75.7l65,37.3l127.2-73L142.9,2.6L142.9,2.6z M80,106.4L23.6,74.7L142.9,6.1
		L199,38.4L80,106.4L80,106.4z"/>
	<path class="st2" d="M208.7,37.8l-128.8,74L14.2,74l-0.4,0.3V152l8.8,5.1l4.2-2.7L69.5,179l1.9,6.2l8.5,4.9l0.5-0.3l0,0l8.1-4.7
		l1.9-6.2l105.8-60.8l4.1,2.7l8.8-5.1V38.1L208.7,37.8L208.7,37.8z M22.2,155.9l-7.6-4.4v-4.1l9.1,5.2L22.2,155.9L22.2,155.9z
		 M66.7,176.4v-2.5l-8.5-4.9v2.5l-22.3-12.8v-2.5l-8.5-4.9v2.5l-12.8-7.4V75.3l65,37.3v71.1L66.7,176.4L66.7,176.4z M72.1,184.6
		l-1.5-5l8.9,5.1v4.1L72.1,184.6L72.1,184.6z M197.2,117.6l1.3-0.7l1.1,2.2L197.2,117.6L197.2,117.6z"/>
	<path id="XMLID_180_" class="st0" d="M86.5,113.9l-0.2,0.1v61l11.4-6.5l0,0l52.8-30.2l0,0l48.2-27.5l0,0l4.6-2.6v-61L86.5,113.9
		L86.5,113.9z M146,140L146,140V81l3.8-2.1v59L146,140L146,140z M93.1,111.2l3.8-2.1v59l-3.8,2.1V111.2L93.1,111.2z M97.8,108.5
		l5.1-2.9v58.9h-5.1L97.8,108.5L97.8,108.5z M103.7,164.2v-59l3.8-2.1v59L103.7,164.2L103.7,164.2z M108.3,102.5l5.1-2.9v58.9h-5.1
		V102.5L108.3,102.5L108.3,102.5z M114.3,158.1v-59l3.8-2.1v59L114.3,158.1L114.3,158.1z M118.8,96.5l5.1-2.9v58.9h-5.1V96.5
		L118.8,96.5L118.8,96.5z M124.8,152.1V93l3.8-2.1v59L124.8,152.1L124.8,152.1z M129.4,90.5l5.2-3v58.9h-5.1v-56h-0.1V90.5z
		 M135.4,146V87l3.8-2.1v59L135.4,146L135.4,146z M139.9,84.4l5.2-3v58.8H140L139.9,84.4L139.9,84.4L139.9,84.4z M150.6,78.3
		l5.1-2.9v58.9h-5.1V78.3L150.6,78.3z M156.5,133.9v-59l3.8-2.1v59L156.5,133.9L156.5,133.9z M161.1,72.3l5.2-3v58.9h-5.1
		L161.1,72.3L161.1,72.3L161.1,72.3z M167.1,127.9v-59l3.8-2.1v59L167.1,127.9L167.1,127.9z M171.7,66.2l5.1-2.9v59h-5.1V66.2
		L171.7,66.2z M177.7,121.9v-59l3.8-2.1v59L177.7,121.9L177.7,121.9z M182.3,60.2l5.1-2.9v59h-5.1V60.2L182.3,60.2z M188.2,115.8
		v-59l3.8-2.1v59L188.2,115.8L188.2,115.8z M192.9,54.1l5.1-2.9V110h-5.1V54.1L192.9,54.1z M198.8,109.6V50.7l3.8-2.1v59
		L198.8,109.6L198.8,109.6z M92.3,111.7v58.8h-5.1v-55.9L92.3,111.7L92.3,111.7z"/>
	<g id="XMLID_167_">
		<polygon id="XMLID_179_" class="st1" points="39.7,66.2 43.6,64 98.2,95 94.4,97.2 		"/>
		<polygon id="XMLID_178_" class="st1" points="30.2,71.8 34,69.6 88.7,100.6 84.9,102.8 		"/>
		<polygon id="XMLID_177_" class="st1" points="49.7,60.5 53.5,58.3 108.2,89.3 104.4,91.5 		"/>
		<polygon id="XMLID_176_" class="st1" points="59.5,54.7 63.3,52.5 117.9,83.5 114.1,85.7 		"/>
		<polygon id="XMLID_175_" class="st1" points="69.1,49 72.9,46.8 127.5,77.9 123.7,80 		"/>
		<polygon id="XMLID_174_" class="st1" points="79,43.4 82.9,41.2 137.5,72.2 133.7,74.4 		"/>
		<polygon id="XMLID_173_" class="st1" points="88.8,37.6 92.6,35.4 147.3,66.4 143.5,68.6 		"/>
		<polygon id="XMLID_172_" class="st1" points="98.9,32.1 102.7,29.9 157.3,60.9 153.5,63.1 		"/>
		<polygon id="XMLID_171_" class="st1" points="108.6,26.3 112.4,24.1 167.1,55.1 163.3,57.3 		"/>
		<polygon id="XMLID_170_" class="st1" points="118.8,20.6 122.6,18.4 177.3,49.4 173.5,51.6 		"/>
		<polygon id="XMLID_169_" class="st1" points="128.8,15 132.6,12.8 187.2,43.8 183.4,46 		"/>
		<polygon id="XMLID_168_" class="st1" points="138.6,9.2 142.4,7 197,38 193.2,40.2 		"/>
	</g>
	<path id="XMLID_166_" class="st2" d="M80,112.8l-66.2-38L142.9,0l66.3,38.1v0.5L80,112.8L80,112.8z M15,74.4l65,37.3l127.9-73.5
		L142.9,1L15,74.4L15,74.4z"/>
	<path id="XMLID_165_" class="st2" d="M199,38.4L142.6,6l-19.9,11.5h-0.1l-5.6,3.2h0.1l-4.4,2.5l-0.2-0.1l-5.6,3.2l0.2,0.1l-4.4,2.5
		l-0.1-0.1L97,32l0.1,0.1L73.4,46l0,0l-5.6,3.2l0,0L23.6,74.7l56.3,31.9l0,0l0.2,0.1L199,38.4L199,38.4z M27.9,76.1l2.7-4l53.6,31.3
		l-4.1,2.3L27.9,76.1L27.9,76.1z M73.4,47l54.8,31.1l-3.8,2.2L69.5,49.2L73.4,47L73.4,47z M102.9,29.9L157.7,61l-3.8,2.2L99.1,32.1
		L102.9,29.9L102.9,29.9z M106,30.6l2.2-3.7L163,58l-4.4,2.5h-0.1v-0.1L106,30.6L106,30.6z M112.8,24.2l54.9,31.2l-3.8,2.2L109,26.4
		L112.8,24.2L112.8,24.2z M116,24.9l2.1-3.7L173,52.3l-4.4,2.5l0,0v-0.1L116,24.9L116,24.9z M122.8,18.5l54.9,31.2l-3.8,2.2
		L119,20.8L122.8,18.5L122.8,18.5z M187.5,44l-3.8,2.2L128.9,15l3.8-2.2L187.5,44L187.5,44z M136,13.7l2.1-3.7l54.6,31l-4.3,2.5
		L136,13.7L136,13.7z M138.9,9.4l3.8-2.2l54.6,31.2l-3.6,2.1L138.9,9.4L138.9,9.4z M182.9,46.7l-4.3,2.5L126,19.3l2.1-3.7
		L182.9,46.7L182.9,46.7z M138.1,72.4l-3.8,2.2L79.6,43.5l3.8-2.2L138.1,72.4L138.1,72.4z M86.7,42.2l2.1-3.7l54.5,30.9l-4.3,2.5
		L86.7,42.2L86.7,42.2z M89.5,37.9l3.8-2.2l1.6,0.9l0,0l53,30.1l-3.8,2.2L89.5,37.9L89.5,37.9z M96.2,36.3l2.1-3.6l54.8,31.1
		l-4.3,2.5L96.2,36.3L96.2,36.3z M133.4,75.1l-4.3,2.5L76.7,47.8l2.1-3.7L133.4,75.1L133.4,75.1z M36.5,70.9l52.1,29.9l-3.6,2.1
		L31.3,71.5l3.1-1.8L36.5,70.9L36.5,70.9z M37.3,70.4l2-3.5l54.5,30.9l-4.1,2.3L37.3,70.4L37.3,70.4z M40,66.3l3.8-2.2l54.6,31
		l-3.8,2.2L40,66.3L40,66.3z M47.2,65l2.1-3.7l54.4,30.9l-4.3,2.5L47.2,65L47.2,65z M50,60.7l3.8-2.2l54.6,30.9l-3.9,2.2L50,60.7
		L50,60.7z M56.9,59.1l2.1-3.7l54.6,31l-4.3,2.5L56.9,59.1L56.9,59.1z M59.7,54.8l3.8-2.2l1.9,1.1l0,0l52.8,30l-3.8,2.2L59.7,54.8
		L59.7,54.8z M66.7,53.4l2.1-3.7l54.7,31l-4.3,2.5L66.7,53.4L66.7,53.4z"/>
	<g id="XMLID_163_">
		<path id="XMLID_164_" class="st2" d="M75.7,176.8l-57.2-32.9V81.7l57.2,32.9V176.8L75.7,176.8z M19.5,143.3l55.1,31.6v-59.8
			L19.5,83.5V143.3L19.5,143.3z"/>
	</g>
	<g id="XMLID_161_">
		<polygon id="XMLID_162_" class="st2" points="46.7,159.5 45.6,159.5 45.7,98.6 46.8,98.6 		"/>
	</g>
	<g id="XMLID_159_">
		<polygon id="XMLID_160_" class="st2" points="37.2,153.5 36.1,153.5 36.2,92.6 37.3,92.6 		"/>
	</g>
	<g id="XMLID_157_">
		<polygon id="XMLID_158_" class="st2" points="27.7,148.5 26.6,148.5 26.7,87.6 27.8,87.6 		"/>
	</g>
	<g id="XMLID_155_">
		<polygon id="XMLID_156_" class="st2" points="56.2,164.5 55.1,164.5 55.2,103.6 56.3,103.6 		"/>
	</g>
	<g id="XMLID_90_">
		<polygon id="XMLID_154_" class="st2" points="65.7,170.5 64.6,170.5 64.7,109.6 65.8,109.6 		"/>
	</g>
</g>
<polygon class="st3" points="87.2,141.7 108.3,129.4 108.3,102.5 87.2,114.7 "/>
<polygon class="st3" points="87.2,174.5 108.3,162.2 108.3,135.3 87.2,147.5 "/>
<g>
	<polygon class="st4" points="87.4,119.2 108.5,106.9 108.5,102.5 87.4,114.7 	"/>
	<polygon class="st4" points="87.4,124.7 108.5,112.4 108.5,108 87.4,120.3 	"/>
	<polygon class="st4" points="87.4,130.2 108.5,118 108.5,113.5 87.4,125.8 	"/>
	<polygon class="st4" points="87.4,135.8 108.5,123.5 108.5,119.1 87.4,131.3 	"/>
	<polygon class="st4" points="87.4,141.3 108.5,129 108.5,124.6 87.4,136.8 	"/>
</g>
<polygon class="st3" points="118.2,124 139.3,111.7 139.3,84.8 118.2,97 "/>
<polygon class="st3" points="181.2,87.8 202.3,75.5 202.3,48.7 181.2,60.9 "/>
<g>
	<polygon class="st4" points="181.4,65.4 202.5,53.1 202.5,48.7 181.4,60.9 	"/>
	<polygon class="st4" points="181.4,70.9 202.5,58.6 202.5,54.2 181.4,66.5 	"/>
	<polygon class="st4" points="181.4,76.4 202.5,64.2 202.5,59.7 181.4,72 	"/>
	<polygon class="st4" points="181.4,82 202.5,69.7 202.5,65.3 181.4,77.5 	"/>
	<polygon class="st4" points="181.4,87.5 202.5,75.2 202.5,70.8 181.4,83 	"/>
</g>
<polygon class="st3" points="150.7,105.6 171.8,93.3 171.8,66.4 150.7,78.6 "/>
<g>
	<polygon class="st4" points="150.9,83.1 172,70.8 172,66.4 150.9,78.6 	"/>
	<polygon class="st4" points="150.9,88.6 172,76.3 172,71.9 150.9,84.2 	"/>
	<polygon class="st4" points="150.9,94.1 172,81.9 172,77.4 150.9,89.7 	"/>
	<polygon class="st4" points="150.9,99.7 172,87.4 172,83 150.9,95.2 	"/>
	<polygon class="st4" points="150.9,105.2 172,92.9 172,88.5 150.9,100.7 	"/>
</g>
<g>
	<polygon class="st4" points="87.2,152.4 108.3,140.1 108.3,135.7 87.2,147.9 	"/>
	<polygon class="st4" points="87.2,157.9 108.3,145.6 108.3,141.2 87.2,153.5 	"/>
	<polygon class="st4" points="87.2,163.4 108.3,151.2 108.3,146.7 87.2,159 	"/>
	<polygon class="st4" points="87.2,169 108.3,156.7 108.3,152.3 87.2,164.5 	"/>
	<polygon class="st4" points="87.2,174.5 108.3,162.2 108.3,157.8 87.2,170 	"/>
</g>
<polygon class="st3" points="118.6,156.5 139.7,144.2 139.7,117.3 118.6,129.5 "/>
<g>
	<polygon class="st4" points="118.6,134.4 139.7,122.1 139.7,117.7 118.6,129.9 	"/>
	<polygon class="st4" points="118.6,139.9 139.7,127.6 139.7,123.2 118.6,135.5 	"/>
	<polygon class="st4" points="118.6,145.4 139.7,133.2 139.7,128.7 118.6,141 	"/>
	<polygon class="st4" points="118.6,151 139.7,138.7 139.7,134.3 118.6,146.5 	"/>
	<polygon class="st4" points="118.6,156.5 139.7,144.2 139.7,139.8 118.6,152 	"/>
</g>
<polygon class="st3" points="150.7,137.8 171.8,125.4 171.8,98.6 150.7,110.8 "/>
<g>
	<polygon class="st4" points="150.7,115.6 171.8,103.3 171.8,98.9 150.7,111.1 	"/>
	<polygon class="st4" points="150.7,121.1 171.8,108.8 171.8,104.4 150.7,116.8 	"/>
	<polygon class="st4" points="150.7,126.6 171.8,114.4 171.8,109.9 150.7,122.2 	"/>
	<polygon class="st4" points="150.7,132.2 171.8,119.9 171.8,115.5 150.7,127.8 	"/>
	<polygon class="st4" points="150.7,137.8 171.8,125.4 171.8,121 150.7,133.2 	"/>
</g>
<polygon class="st3" points="181.4,119.8 202.5,107.5 202.5,80.7 181.4,92.9 "/>
<path class="st5" d="M118,97.8c0-1.2-0.1-0.1-0.1-0.1l21.4-12.9c0,0-0.1,25.6,0,26.8"/>
<g id="XMLID_329_">
	<polygon id="XMLID_332_" class="st1" points="213.7,164.2 200.8,156.7 187.9,164.2 187.9,164.2 187.9,179.3 200.8,186.9 
		200.8,171.8 	"/>
	<polygon id="XMLID_331_" class="st0" points="187.9,179.4 200.8,186.9 200.8,171.9 187.9,164.3 187.9,164.3 	"/>
	<path id="XMLID_330_" class="st2" d="M214,164.1l-13.2-7.7l-13.1,7.7l0,0l0,0v0.3l0,0v15.1l12.9,7.5l0,0l0.3,0.2l0.3-0.2l0,0
		l12.8-7.5l0.1-0.1v-15l0,0L214,164.1z M200.8,157l6.1,3.5l-12.4,7.2l-6.1-3.5L200.8,157z M200.6,186.4l-12.4-7.2v-14.5l12.4,7.2
		V186.4z M206.1,168.4l-5.3,3.1l-6.1-3.5l12.4-7.2l6.1,3.5L206.1,168.4z"/>
</g>
<g>
	<polygon class="st4" points="118.1,102 139.2,89.7 139.2,85.3 118.1,97.5 	"/>
	<polygon class="st4" points="118.1,107.5 139.2,95.2 139.2,90.8 118.1,103.1 	"/>
</g>
<path class="st5" d="M181,93.8c0-1.2-0.1-0.1-0.1-0.1l21.4-12.9c0,0-0.1,25.6,0,26.8"/>
<g>
	<polygon class="st4" points="181.2,97.6 202.3,85.3 202.3,80.9 181.2,93.1 	"/>
</g>
</svg>
