<?xml version="1.0" encoding="utf-8"?>
<!-- Generator: Adobe Illustrator 22.0.1, SVG Export Plug-In . SVG Version: 6.00 Build 0)  -->
<svg version="1.1" id="Layer_1" xmlns="http://www.w3.org/2000/svg" xmlns:xlink="http://www.w3.org/1999/xlink" x="0px" y="0px"
	 viewBox="0 0 221.3 190.8" style="enable-background:new 0 0 221.3 190.8;" xml:space="preserve">
<style type="text/css">
	.st0{fill:#F48320;}
	.st1{fill:#F8FBFF;}
	.st2{fill:#606060;}
	.st3{fill:#414142;}
	.st4{fill:#FFFFFF;}
	.st5{fill:#333333;}
	.st6{fill:none;}
</style>
<g>
	<polygon id="XMLID_112_" class="st0" points="84,173.1 30.1,141.9 30.1,82.6 84,113.7 84,173.1 	"/>
	<polygon id="XMLID_111_" class="st0" points="135.5,21.6 30.1,82.5 84,113.6 189.4,52.7 135.5,21.6 	"/>
	<path id="XMLID_108_" class="st1" d="M135.5,23.3L31.3,83.5l53.2,30.7L188.7,54L135.5,23.3L135.5,23.3z M84,108.8L37.8,82.7
		l97.6-56.4l46,26.5L84,108.8L84,108.8z"/>
	<path class="st2" d="M189.4,52.3L83.9,113.2L30.1,82.1l-0.3,0.3v63.9l7.2,4.2l3.4-2.2l35,20.2l1.6,5.1l6.9,4l0.4-0.2v0l6.7-3.8
		l1.5-5.1l86.7-50l3.3,2.3l7.2-4.2v-64L189.4,52.3L189.4,52.3z M36.7,149.5l-6.2-3.6v-3.4l7.5,4.3L36.7,149.5L36.7,149.5z
		 M73.1,166.4v-2l-6.9-4v2l-18.3-10.6v-2l-6.9-4v2l-10.5-6.1V83.2l53.2,30.7v58.6L73.1,166.4L73.1,166.4z M77.6,173.1l-1.2-4.1
		l7.3,4.2l0,3.4L77.6,173.1L77.6,173.1z M179.9,118l1.1-0.6l0.9,1.8L179.9,118L179.9,118z"/>
	<path id="XMLID_84_" class="st0" d="M89.4,115l-0.2,0.1v50.2l9.4-5.4v0l43.3-24.8v0l39.5-22.7v0l3.8-2.2V60L89.4,115L89.4,115z
		 M138.1,136.4L138.1,136.4l0-48.6l3.1-1.8v48.6L138.1,136.4L138.1,136.4z M94.8,112.7l3.1-1.8v48.6l-3.1,1.7V112.7L94.8,112.7z
		 M98.5,110.5l4.2-2.4v48.5l-4.2,0V110.5L98.5,110.5z M103.4,156.3v-48.6l3.1-1.8v48.6L103.4,156.3L103.4,156.3z M107.2,105.6
		l4.2-2.4v48.5l-4.2,0L107.2,105.6L107.2,105.6L107.2,105.6z M112.1,151.4v-48.6l3.1-1.8v48.6L112.1,151.4L112.1,151.4z
		 M115.8,100.6l4.2-2.4v48.5l-4.2,0L115.8,100.6L115.8,100.6L115.8,100.6z M120.7,146.4V97.8l3.1-1.8v48.6L120.7,146.4L120.7,146.4z
		 M124.4,95.7l4.2-2.4v48.5l-4.2,0L124.4,95.7L124.4,95.7L124.4,95.7z M129.4,141.4V92.8l3.1-1.8v48.6L129.4,141.4L129.4,141.4z
		 M133,90.7l4.3-2.5v48.4l-4.2,0v-46H133L133,90.7z M141.8,85.7l4.2-2.4v48.5l-4.2,0V85.7L141.8,85.7z M146.7,131.5V82.9l3.1-1.8
		v48.6L146.7,131.5L146.7,131.5z M150.4,80.7l4.2-2.4v48.5l-4.2,0L150.4,80.7L150.4,80.7L150.4,80.7z M155.3,126.5V77.9l3.1-1.8
		v48.6L155.3,126.5L155.3,126.5z M159.1,75.7l4.2-2.4v48.5l-4.2,0V75.7L159.1,75.7z M164,121.5V72.9l3.1-1.8v48.6L164,121.5
		L164,121.5z M167.8,70.7l4.2-2.4v48.6l-4.2,0V70.7L167.8,70.7z M172.6,116.5V67.9l3.1-1.8v48.6L172.6,116.5L172.6,116.5z
		 M176.4,65.8l4.2-2.4v48.3l-4.2,0V65.8L176.4,65.8z M181.3,111.5V63l3.1-1.8v48.5L181.3,111.5L181.3,111.5z M94.1,113.1v48.4
		l-4.2,0v-46L94.1,113.1L94.1,113.1z"/>
	<g id="XMLID_71_">
		<polygon id="XMLID_83_" class="st1" points="51,75.7 54.2,73.8 98.9,99.4 95.8,101.2 51,75.7 		"/>
		<polygon id="XMLID_82_" class="st1" points="43.2,80.3 46.4,78.5 91.1,104 88,105.8 43.2,80.3 		"/>
		<polygon id="XMLID_81_" class="st1" points="59.2,71 62.3,69.2 107.1,94.7 103.9,96.5 59.2,71 		"/>
		<polygon id="XMLID_80_" class="st1" points="67.2,66.2 70.3,64.4 115.1,89.9 111.9,91.7 67.2,66.2 		"/>
		<polygon id="XMLID_79_" class="st1" points="75,61.6 78.2,59.8 122.9,85.3 119.8,87.1 75,61.6 		"/>
		<polygon id="XMLID_78_" class="st1" points="83.2,56.9 86.4,55.1 131.1,80.6 128,82.4 83.2,56.9 		"/>
		<polygon id="XMLID_77_" class="st1" points="91.2,52.1 94.3,50.3 139.1,75.9 136,77.6 91.2,52.1 		"/>
		<polygon id="XMLID_76_" class="st1" points="99.4,47.6 102.6,45.8 147.3,71.3 144.2,73.1 99.4,47.6 		"/>
		<polygon id="XMLID_75_" class="st1" points="107.4,42.8 110.6,41 155.3,66.6 152.2,68.4 107.4,42.8 		"/>
		<polygon id="XMLID_74_" class="st1" points="115.8,38.2 118.9,36.4 163.7,61.9 160.5,63.7 115.8,38.2 		"/>
		<polygon id="XMLID_73_" class="st1" points="124,33.5 127.1,31.7 171.8,57.2 168.7,59 124,33.5 		"/>
		<polygon id="XMLID_72_" class="st1" points="132,28.7 135.1,26.9 179.8,52.5 176.7,54.3 132,28.7 		"/>
	</g>
	<path id="XMLID_68_" class="st2" d="M84,114L29.8,82.7l105.8-61.5l54.3,31.3l0,0.4L84,114L84,114z M30.8,82.5L84,113.2l104.7-60.5
		L135.5,22L30.8,82.5L30.8,82.5z"/>
	<path id="XMLID_42_" class="st2" d="M181.4,52.8l-46.1-26.6L119,35.6l-0.1,0l-4.5,2.6l0.1,0l-3.6,2.1l-0.1-0.1l-4.5,2.6l0.1,0.1
		l-3.6,2.1l-0.1-0.1l-4.5,2.6l0.1,0.1L78.6,59.1l0,0L74,61.7l0,0l-36.2,21l46.1,26.2l0,0l0.2,0.1L181.4,52.8L181.4,52.8z M41.3,83.8
		l2.2-3.3l43.9,25.7l-3.3,1.9L41.3,83.8L41.3,83.8z M78.6,59.9l44.9,25.6l-3.1,1.8L75.4,61.7L78.6,59.9L78.6,59.9z M102.8,45.8
		l44.9,25.6l-3.1,1.8L99.7,47.6L102.8,45.8L102.8,45.8z M105.3,46.4l1.8-3L152,69l-3.6,2.1l-0.1,0l0,0L105.3,46.4L105.3,46.4z
		 M110.9,41.1l44.9,25.6l-3.1,1.8l-44.9-25.6L110.9,41.1L110.9,41.1z M113.5,41.7l1.8-3l44.9,25.6l-3.6,2.1l0,0l0,0L113.5,41.7
		L113.5,41.7z M119,36.4L164,62.1l-3.1,1.8l-45-25.6L119,36.4L119,36.4z M172.1,57.4l-3.1,1.8L124,33.6l3.1-1.8L172.1,57.4
		L172.1,57.4z M129.9,32.4l1.8-3l44.7,25.5l-3.5,2L129.9,32.4L129.9,32.4z M132.2,28.9l3.1-1.8L180,52.8l-3,1.7L132.2,28.9
		L132.2,28.9z M168.2,59.6l-3.5,2l-43-24.6l1.8-3L168.2,59.6L168.2,59.6z M131.5,80.8l-3.1,1.8L83.6,57l3.1-1.8L131.5,80.8
		L131.5,80.8z M89.4,55.9l1.8-3l44.6,25.5l-3.5,2L89.4,55.9L89.4,55.9z M91.8,52.4l3.1-1.8l1.3,0.8l0,0l43.4,24.8l-3.1,1.8
		L91.8,52.4L91.8,52.4z M97.2,51.1l1.7-3l44.9,25.6l-3.5,2L97.2,51.1L97.2,51.1z M127.7,83l-3.5,2L81.3,60.5l1.8-3L127.7,83
		L127.7,83z M48.3,79.6L91,104.2l-2.9,1.7l-44-25.8l2.5-1.4L48.3,79.6L48.3,79.6z M49.1,79.2l1.6-2.9l44.6,25.4l-3.4,1.9L49.1,79.2
		L49.1,79.2z M51.3,75.8l3.1-1.8l44.7,25.5l-3.1,1.8L51.3,75.8L51.3,75.8z M57.1,74.7l1.8-3L103.4,97l-3.5,2L57.1,74.7L57.1,74.7z
		 M59.5,71.1l3.1-1.8l44.7,25.5l-3.2,1.8L59.5,71.1L59.5,71.1z M65.1,69.9l1.8-3l44.7,25.5l-3.5,2L65.1,69.9L65.1,69.9z M67.4,66.3
		l3.1-1.8l1.6,0.9l0,0l43.2,24.7l-3.1,1.8L67.4,66.3L67.4,66.3z M73.1,65.2l1.7-3l44.8,25.5l-3.5,2L73.1,65.2L73.1,65.2z"/>
	<g id="XMLID_38_">
		<path id="XMLID_39_" class="st2" d="M80.5,166.7l-46.9-27.1V88.4l46.9,27.1V166.7L80.5,166.7z M34.5,139.2l45.1,26V116L34.5,90
			V139.2L34.5,139.2z"/>
	</g>
	<g id="XMLID_36_">
		<polygon id="XMLID_37_" class="st2" points="56.7,152.5 55.8,152.5 55.9,102.3 56.8,102.3 56.7,152.5 		"/>
	</g>
	<rect x="42.1" y="124" transform="matrix(0.866 0.5 -0.5 0.866 68.4476 -5.988)" class="st2" width="6.6" height="1.4"/>
	<rect x="63.9" y="134.4" transform="matrix(0.866 0.5 -0.5 0.866 76.5344 -15.5081)" class="st2" width="6.6" height="1.4"/>
</g>
</svg>
