<?xml version="1.0" encoding="UTF-8"?>
<svg xmlns="http://www.w3.org/2000/svg" xmlns:xlink="http://www.w3.org/1999/xlink" width="60pt" height="60pt" viewBox="0 0 60 60" version="1.1">
<g id="surface1">
<path style=" stroke:none;fill-rule:nonzero;fill:#7c7d7e;fill-opacity:1;" d="M 18.453125 5.238281 C 11.308594 8.570312 8.09375 11.90625 4.882812 19.046875 C 0.59375 28.453125 2.617188 40.832031 9.882812 48.691406 C 13.808594 52.976562 23.570312 57.144531 29.761719 57.144531 C 35.953125 57.144531 45.714844 52.976562 49.644531 48.691406 C 53.691406 44.285156 57.144531 35.59375 57.144531 29.761719 C 57.144531 23.570312 52.976562 13.808594 48.691406 9.882812 C 44.285156 5.832031 35.59375 2.382812 29.761719 2.382812 C 26.546875 2.382812 22.023438 3.570312 18.453125 5.238281 Z M 39.882812 7.023438 C 56.429688 14.523438 59.761719 36.429688 46.070312 48.453125 C 29.761719 62.738281 4.644531 50.714844 4.761719 28.570312 C 4.882812 11.90625 24.40625 0 39.882812 7.023438 Z M 39.882812 7.023438 "/>
<path style=" stroke:none;fill-rule:nonzero;fill:#7c7d7e;fill-opacity:1;" d="M 14.285156 29.761719 L 14.285156 41.667969 L 45.238281 41.667969 L 45.238281 17.855469 L 14.285156 17.855469 Z M 37.144531 26.191406 C 33.691406 29.523438 30.355469 32.144531 29.761719 32.144531 C 29.167969 32.144531 25.832031 29.523438 22.382812 26.191406 L 16.070312 20.355469 L 43.453125 20.355469 Z M 20.117188 27.855469 L 22.738281 30.59375 L 19.644531 32.617188 L 16.667969 34.523438 L 16.667969 29.761719 C 16.667969 27.144531 16.785156 25 17.023438 25 C 17.261719 25 18.570312 26.308594 20.117188 27.855469 Z M 42.855469 29.761719 L 42.855469 34.523438 L 39.882812 32.617188 L 36.785156 30.59375 L 39.40625 27.855469 C 40.953125 26.308594 42.261719 25 42.5 25 C 42.738281 25 42.855469 27.144531 42.855469 29.761719 Z M 27.382812 33.570312 C 29.285156 34.761719 30.238281 34.761719 32.144531 33.570312 C 34.882812 31.90625 37.382812 32.855469 40.953125 36.785156 L 43.214844 39.285156 L 29.644531 39.285156 L 16.070312 39.167969 L 20 35.714844 C 24.40625 31.667969 24.285156 31.667969 27.382812 33.570312 Z M 27.382812 33.570312 "/>
</g>
</svg>
