<?xml version="1.0" encoding="UTF-8"?>
<svg xmlns="http://www.w3.org/2000/svg" xmlns:xlink="http://www.w3.org/1999/xlink" width="60pt" height="60pt" viewBox="0 0 60 60" version="1.1">
<g id="surface1">
<path style=" stroke:none;fill-rule:nonzero;fill:rgb(0%,0%,0%);fill-opacity:1;" d="M 29.015625 0.0507812 C 28.742188 0.0703125 28.1875 0.113281 27.773438 0.140625 C 22.148438 0.53125 16.648438 2.582031 12.070312 6.007812 C 7.425781 9.476562 3.863281 14.257812 1.875 19.6875 C 0.9375 22.234375 0.335938 25.027344 0.144531 27.703125 C -0.0273438 30.074219 -0.0273438 29.925781 0.144531 32.320312 C 0.335938 34.984375 0.941406 37.765625 1.875 40.3125 C 4.894531 48.554688 11.445312 55.105469 19.6875 58.125 C 22.234375 59.0625 25.027344 59.664062 27.703125 59.855469 C 30.074219 60.027344 29.925781 60.027344 32.320312 59.855469 C 37.914062 59.445312 43.378906 57.394531 47.929688 53.992188 C 52.574219 50.523438 56.136719 45.742188 58.125 40.3125 C 59.0625 37.765625 59.664062 34.972656 59.855469 32.296875 C 60.027344 29.925781 60.027344 30.074219 59.855469 27.679688 C 59.664062 25.015625 59.058594 22.234375 58.125 19.6875 C 55.105469 11.445312 48.554688 4.894531 40.3125 1.875 C 37.753906 0.9375 34.929688 0.328125 32.273438 0.144531 C 31.890625 0.117188 31.273438 0.0742188 30.910156 0.046875 C 30.179688 -0.00390625 29.742188 -0.00390625 29.015625 0.0507812 Z M 31.945312 3.613281 C 36.71875 3.941406 41.363281 5.621094 45.351562 8.460938 C 47.304688 9.851562 49.214844 11.667969 50.734375 13.578125 C 52.855469 16.261719 54.476562 19.390625 55.410156 22.601562 C 56.199219 25.328125 56.539062 28.140625 56.433594 31.023438 C 56.242188 36.171875 54.570312 41.082031 51.570312 45.304688 C 47.828125 50.578125 42.238281 54.328125 35.957031 55.78125 C 30.746094 56.992188 25.214844 56.574219 20.253906 54.601562 C 11.328125 51.050781 4.964844 42.867188 3.753906 33.375 C 3.601562 32.179688 3.554688 31.359375 3.554688 30 C 3.554688 28.640625 3.601562 27.820312 3.753906 26.625 C 4.261719 22.648438 5.6875 18.820312 7.902344 15.464844 C 12.929688 7.859375 21.449219 3.359375 30.46875 3.546875 C 30.894531 3.558594 31.5625 3.585938 31.945312 3.613281 Z M 31.945312 3.613281 "/>
<path style=" stroke:none;fill-rule:nonzero;fill:rgb(0%,0%,0%);fill-opacity:1;" d="M 23.625 9.746094 C 23.28125 9.882812 20.570312 11.476562 20.398438 11.640625 C 20.011719 12.015625 19.925781 12.59375 20.1875 13.101562 C 20.59375 13.882812 25.609375 22.5 25.742188 22.640625 C 26.03125 22.945312 26.527344 23.085938 26.929688 22.972656 C 27.183594 22.90625 30.074219 21.234375 30.28125 21.039062 C 30.601562 20.738281 30.734375 20.199219 30.601562 19.800781 C 30.5625 19.695312 29.3125 17.488281 27.816406 14.902344 C 25.964844 11.691406 25.039062 10.132812 24.910156 10.003906 C 24.585938 9.675781 24.0625 9.566406 23.625 9.746094 Z M 23.625 9.746094 "/>
<path style=" stroke:none;fill-rule:nonzero;fill:rgb(0%,0%,0%);fill-opacity:1;" d="M 18.375 13.855469 C 15.15625 15.839844 14.363281 17.550781 14.792969 21.5625 C 15.589844 28.96875 20.75 39.066406 27.046875 45.53125 C 28.832031 47.371094 31.015625 49.046875 32.546875 49.753906 C 33.453125 50.175781 34.085938 50.320312 35.039062 50.320312 C 36.027344 50.316406 36.734375 50.152344 37.851562 49.65625 C 38.417969 49.402344 39.613281 48.753906 39.59375 48.710938 C 39.585938 48.695312 38.316406 46.496094 36.777344 43.824219 L 33.976562 38.960938 L 33.683594 39.09375 C 31.914062 39.898438 29.855469 39.265625 27.816406 37.296875 C 26.558594 36.085938 25.507812 34.625 24.640625 32.882812 C 23.574219 30.734375 23.0625 28.84375 23.054688 27 C 23.046875 25.765625 23.265625 24.957031 23.792969 24.15625 C 24.039062 23.789062 24.390625 23.429688 24.671875 23.257812 C 24.742188 23.21875 24.796875 23.15625 24.796875 23.125 C 24.796875 23.089844 24.210938 22.046875 23.488281 20.804688 C 22.773438 19.554688 21.519531 17.390625 20.710938 15.984375 C 19.898438 14.578125 19.203125 13.425781 19.167969 13.414062 C 19.128906 13.410156 18.773438 13.609375 18.375 13.855469 Z M 18.375 13.855469 "/>
<path style=" stroke:none;fill-rule:nonzero;fill:rgb(0%,0%,0%);fill-opacity:1;" d="M 38.507812 35.0625 C 38.273438 35.101562 38.195312 35.140625 36.566406 36.078125 C 35.832031 36.5 35.15625 36.917969 35.066406 37 C 34.734375 37.316406 34.597656 37.851562 34.753906 38.277344 C 34.867188 38.597656 40.21875 47.828125 40.398438 48.007812 C 40.742188 48.375 41.3125 48.484375 41.765625 48.277344 C 42.25 48.0625 44.789062 46.554688 44.953125 46.390625 C 45.207031 46.144531 45.296875 45.882812 45.277344 45.460938 L 45.257812 45.117188 L 43.011719 41.226562 C 41.773438 39.085938 40.542969 36.953125 40.269531 36.476562 C 40 36.003906 39.707031 35.535156 39.625 35.4375 C 39.371094 35.140625 38.925781 34.992188 38.507812 35.0625 Z M 38.507812 35.0625 "/>
</g>
</svg>
