<svg xmlns="http://www.w3.org/2000/svg" width="115" height="114" viewBox="0 0 115 114">
    <g fill="none" fill-rule="evenodd" stroke="#000" stroke-width="2" opacity=".5">
        <g stroke-linecap="round" stroke-linejoin="round">
            <path d="M86.746 57.156h-58.51L48.413 46.06H66.57zM48.412 46.06H66.57v-3.027H48.412zM51.439 43.033h12.105v-4.035H51.439zM49.421 38.998h16.14v-3.026h-16.14z"/>
            <path d="M55.474 35.972h4.035v-4.035h-4.035zM57.491 30.928V3.692v27.236zM57.491 81.367c-6.864 0-12.087-6.165-10.958-12.936l1.88-11.275H66.57l1.88 11.275c1.128 6.771-4.094 12.936-10.959 12.936z"/>
            <path d="M59.509 73.297c1.11 0 2.017-.908 2.017-2.018 0-1.11-.908-2.017-2.017-2.017h-4.035a2.023 2.023 0 0 1-2.018-2.018c0-1.11.908-2.017 2.018-2.017h4.035c1.11 0 2.017-.908 2.017-2.018 0-1.11-.908-2.017-2.017-2.017h-4.035a2.023 2.023 0 0 1-2.018-2.018c0-1.11.908-2.018 2.018-2.018h4.035M57.491 57.156v16.14-16.14z"/>
        </g>
        <circle cx="57" cy="57" r="56"/>
    </g>
</svg>
