<svg xmlns="http://www.w3.org/2000/svg" width="114" height="114" viewBox="0 0 114 114">
    <g fill="none" fill-rule="evenodd">
        <path fill="#000" fill-opacity=".5" d="M36.316 36.97v18.255c0 9.91 4.442 19.319 11.885 25.167 2.91 2.287 6.037 3.956 9.299 4.965 3.264-1.01 6.392-2.679 9.299-4.965 7.443-5.848 11.885-15.257 11.885-25.167V36.97c-12.35-.275-19.03-5.545-21.184-7.612-2.154 2.067-8.835 7.337-21.184 7.612M57.5 87.42c-.097 0-.193-.015-.286-.042-3.612-1.072-7.064-2.889-10.26-5.4-7.925-6.228-12.656-16.23-12.656-26.753V35.972c0-.558.452-1.009 1.009-1.009 14.755 0 21.355-7.632 21.42-7.71.19-.227.474-.359.772-.359.256.005.583.131.775.36.098.114 6.7 7.71 21.419 7.71.558 0 1.009.45 1.009 1.008v19.253c0 10.523-4.731 20.525-12.656 26.753-3.193 2.51-6.645 4.327-10.26 5.4-.093.027-.19.042-.286.042"/>
        <path fill="#000" fill-opacity=".5" d="M42.368 42.529v12.695c0 8.07 3.58 15.699 9.574 20.409 1.77 1.392 3.638 2.5 5.558 3.296 1.918-.795 3.787-1.903 5.56-3.296 5.993-4.711 9.572-12.34 9.572-20.409V42.53c-6.959-1.03-11.979-3.475-15.132-5.517-3.152 2.042-8.172 4.487-15.132 5.517M57.5 81.025c-.125 0-.25-.023-.368-.07-2.234-.875-4.4-2.132-6.437-3.735-6.477-5.09-10.344-13.313-10.344-21.996V41.65c0-.507.377-.937.882-1 7.465-.953 12.659-3.615 15.7-5.682.342-.233.79-.233 1.134 0 3.042 2.067 8.236 4.73 15.701 5.682.504.063.881.493.881 1v13.575c0 8.683-3.867 16.905-10.343 21.996-2.04 1.604-4.206 2.86-6.438 3.735-.118.047-.243.07-.368.07"/>
        <path fill="#000" fill-opacity=".5" d="M53.748 65.226h7.504l-2.396-9.588a1.007 1.007 0 0 1 .393-1.066 3.028 3.028 0 0 0 1.277-2.46 3.03 3.03 0 0 0-3.026-3.026 3.03 3.03 0 0 0-3.027 3.026c0 .97.479 1.89 1.279 2.46.338.24.494.665.393 1.066l-2.397 9.588zm8.796 2.018H52.456a1.009 1.009 0 0 1-.979-1.253l2.558-10.226a5.043 5.043 0 0 1-1.58-3.653 5.05 5.05 0 0 1 5.045-5.044 5.05 5.05 0 0 1 5.044 5.044 5.045 5.045 0 0 1-1.577 3.653l2.555 10.226a1.007 1.007 0 0 1-.979 1.253z"/>
        <circle cx="57" cy="57" r="56" stroke="#000" stroke-width="2" opacity=".5"/>
    </g>
</svg>
